<svg width="164" height="48" viewBox="0 0 164 48" fill="none" xmlns="http://www.w3.org/2000/svg">
<g id="App_Store" clip-path="url(#clip0_2303_12479)">
<g id="Group">
<path id="Vector" d="M157.2 0.607422H6.3881C3.33359 0.607422 0.857422 3.08359 0.857422 6.1381V41.8702C0.857422 44.9247 3.33359 47.4009 6.3881 47.4009H157.2C160.255 47.4009 162.731 44.9247 162.731 41.8702V6.1381C162.731 3.08359 160.255 0.607422 157.2 0.607422Z" fill="#020A0A"/>
<path id="Vector_2" d="M157.2 48H6.3877C3.00035 48 0.25 45.2496 0.25 41.8623V6.1377C0.25 2.75035 3.00035 0 6.3877 0H157.2C160.587 0 163.338 2.75035 163.338 6.1377V41.8623C163.338 45.2496 160.587 48 157.2 48ZM6.3877 1.21405C3.67482 1.21405 1.46405 3.42482 1.46405 6.1377V41.8623C1.46405 44.5752 3.67482 46.7859 6.3877 46.7859H157.2C159.913 46.7859 162.124 44.5752 162.124 41.8623V6.1377C162.124 3.41733 159.913 1.21405 157.2 1.21405H6.3877Z" fill="#B2B2B2"/>
</g>
<g id="Group_2">
<path id="Vector_3" d="M54.5447 13.6467L53.8627 15.8799H52.3789L54.9044 7.99609H56.7405L59.3035 15.8799H57.7597L57.0478 13.6467H54.5447ZM56.8005 12.56L56.1784 10.619C56.0286 10.1394 55.9012 9.59984 55.7812 9.1427H55.7588C55.6389 9.59984 55.5264 10.1469 55.3841 10.619L54.777 12.56H56.8005Z" fill="white"/>
<path id="Vector_4" d="M61.4536 10.1846L62.3754 13.0773C62.5403 13.5794 62.6527 14.0366 62.7651 14.5012H62.8026C62.9075 14.0366 63.0349 13.5869 63.1923 13.0773L64.1066 10.1846H65.6129L63.4396 15.8801H62.0232L59.9023 10.1846H61.4611H61.4536Z" fill="white"/>
<path id="Vector_5" d="M71.3458 14.516C71.3458 15.0331 71.3682 15.5352 71.4357 15.8874H70.1392L70.0343 15.2579H69.9968C69.6596 15.7 69.06 16.0148 68.3106 16.0148C67.164 16.0148 66.5195 15.183 66.5195 14.3211C66.5195 12.8972 67.7935 12.1553 69.8994 12.1703V12.0804C69.8994 11.7057 69.7495 11.0837 68.7378 11.0837C68.1757 11.0837 67.5912 11.256 67.209 11.5033L66.9317 10.5666C67.3514 10.3118 68.0933 10.0645 68.9926 10.0645C70.8212 10.0645 71.3458 11.2186 71.3458 12.4776V14.5235V14.516ZM69.9444 13.0996C68.9252 13.0846 67.9584 13.3019 67.9584 14.1637C67.9584 14.7258 68.3181 14.9806 68.7753 14.9806C69.3598 14.9806 69.772 14.6059 69.9069 14.1937C69.9444 14.0888 69.9444 13.9839 69.9444 13.879V13.0921V13.0996Z" fill="white"/>
<path id="Vector_6" d="M74.0971 9.36835C73.6175 9.36835 73.3027 9.01613 73.3027 8.59646C73.3027 8.1543 73.6325 7.80957 74.1121 7.80957C74.5917 7.80957 74.9065 8.14681 74.9215 8.59646C74.9215 9.01613 74.6067 9.36835 74.1121 9.36835H74.0971ZM73.3852 15.8808V10.1852H74.824V15.8808H73.3852Z" fill="white"/>
<path id="Vector_7" d="M76.8926 7.56934H78.3315V15.8878H76.8926V7.56934Z" fill="white"/>
<path id="Vector_8" d="M84.836 14.516C84.836 15.0331 84.8585 15.5352 84.9259 15.8874H83.6294L83.5245 15.2579H83.487C83.1498 15.7 82.5503 16.0148 81.8009 16.0148C80.6543 16.0148 80.0098 15.183 80.0098 14.3211C80.0098 12.8972 81.2838 12.1553 83.3896 12.1703V12.0804C83.3896 11.7057 83.2397 11.0837 82.2355 11.0837C81.6735 11.0837 81.0889 11.256 80.7067 11.5033L80.4294 10.5666C80.8491 10.3118 81.591 10.0645 82.4903 10.0645C84.3114 10.0645 84.8435 11.2186 84.8435 12.4776V14.5235L84.836 14.516ZM83.4346 13.0996C82.4154 13.0846 81.4486 13.3019 81.4486 14.1637C81.4486 14.7258 81.8084 14.9806 82.2655 14.9806C82.85 14.9806 83.2622 14.6059 83.3971 14.1937C83.4346 14.0888 83.4346 13.9839 83.4346 13.879V13.0921V13.0996Z" fill="white"/>
<path id="Vector_9" d="M86.8676 7.56934H88.3064V10.9717H88.3289C88.6811 10.4246 89.3031 10.0574 90.1575 10.0574C91.5514 10.0574 92.5406 11.2115 92.5331 12.9501C92.5331 14.996 91.2366 16.0152 89.9476 16.0152C89.2132 16.0152 88.5537 15.7305 88.149 15.0335H88.1266L88.0591 15.8878H86.8301C86.8526 15.4981 86.875 14.8686 86.875 14.2991V7.56934H86.8676ZM88.3064 13.5347C88.3064 13.6546 88.3214 13.767 88.3439 13.8719C88.4938 14.4565 88.9959 14.8761 89.6179 14.8761C90.5172 14.8761 91.0718 14.1642 91.0718 13.0026C91.0718 11.9984 90.5921 11.1815 89.6329 11.1815C89.0483 11.1815 88.5088 11.6012 88.3589 12.2307C88.3364 12.3356 88.3139 12.463 88.3139 12.6054V13.5272L88.3064 13.5347Z" fill="white"/>
<path id="Vector_10" d="M94.2266 7.56934H95.6654V15.8878H94.2266V7.56934Z" fill="white"/>
<path id="Vector_11" d="M98.7598 13.4375C98.7973 14.4642 99.5991 14.9138 100.513 14.9138C101.18 14.9138 101.645 14.8089 102.095 14.659L102.305 15.6408C101.81 15.8506 101.135 16.0005 100.319 16.0005C98.4675 16.0005 97.3809 14.8689 97.3809 13.1227C97.3809 11.5415 98.3401 10.0576 100.169 10.0576C101.997 10.0576 102.627 11.5789 102.627 12.8305C102.627 13.1002 102.604 13.3101 102.582 13.4375H98.7673H98.7598ZM101.263 12.4333C101.278 11.9087 101.038 11.0393 100.079 11.0393C99.187 11.0393 98.8122 11.8487 98.7598 12.4333H101.263Z" fill="white"/>
<path id="Vector_12" d="M109.724 16.0155C108.121 16.0155 106.869 14.9138 106.869 13.0778C106.869 11.2417 108.098 10.0576 109.814 10.0576C111.53 10.0576 112.647 11.2492 112.647 12.9803C112.647 15.0712 111.171 16.008 109.732 16.008H109.717L109.724 16.0155ZM109.769 14.9738C110.586 14.9738 111.163 14.1794 111.163 13.0178C111.163 12.126 110.766 11.0993 109.784 11.0993C108.803 11.0993 108.353 12.096 108.353 13.0403C108.353 14.1419 108.9 14.9738 109.754 14.9738H109.769Z" fill="white"/>
<path id="Vector_13" d="M114.34 11.8855C114.34 11.2335 114.317 10.679 114.295 10.1919H115.546L115.614 11.0462H115.651C115.906 10.604 116.528 10.0645 117.48 10.0645C118.432 10.0645 119.503 10.7089 119.503 12.5075V15.8874H118.064V12.6724C118.064 11.8556 117.757 11.2335 116.978 11.2335C116.408 11.2335 116.011 11.6457 115.854 12.0729C115.809 12.1928 115.786 12.3652 115.786 12.53V15.8874H114.347V11.8855H114.34Z" fill="white"/>
<path id="Vector_14" d="M126.128 8.72331V10.1847H127.5V11.2638H126.128V13.7669C126.128 14.4713 126.315 14.8161 126.863 14.8161C127.117 14.8161 127.26 14.8011 127.425 14.7561L127.447 15.8428C127.237 15.9252 126.848 15.9926 126.405 15.9926C125.866 15.9926 125.439 15.8203 125.169 15.528C124.854 15.1983 124.712 14.6737 124.712 13.9243V11.2563H123.902V10.1772H124.712V9.11301L126.128 8.71582V8.72331Z" fill="white"/>
<path id="Vector_15" d="M129.097 7.56934H130.536V10.9642H130.559C130.731 10.6944 130.978 10.4696 131.271 10.3197C131.563 10.1548 131.9 10.0649 132.267 10.0649C133.234 10.0649 134.253 10.7094 134.253 12.5305V15.8878H132.814V12.6803C132.814 11.8635 132.507 11.2265 131.713 11.2265C131.151 11.2265 130.754 11.6012 130.589 12.0358C130.544 12.1632 130.529 12.3206 130.529 12.4705V15.8878H129.09V7.56934H129.097Z" fill="white"/>
<path id="Vector_16" d="M137.318 13.4375C137.356 14.4642 138.158 14.9138 139.072 14.9138C139.739 14.9138 140.204 14.8089 140.653 14.659L140.863 15.6408C140.368 15.8506 139.694 16.0005 138.877 16.0005C137.026 16.0005 135.939 14.8689 135.939 13.1227C135.939 11.5415 136.899 10.0576 138.727 10.0576C140.556 10.0576 141.185 11.5789 141.185 12.8305C141.185 13.1002 141.163 13.3101 141.14 13.4375H137.326H137.318ZM139.821 12.4333C139.836 11.9087 139.597 11.0393 138.637 11.0393C137.746 11.0393 137.371 11.8487 137.318 12.4333H139.821Z" fill="white"/>
</g>
<g id="Group_3">
<g id="Group_4">
<path id="Vector_17" d="M36.6493 23.5313C36.6119 19.6268 39.8418 17.7308 39.9917 17.6409C38.1632 14.9729 35.3229 14.6057 34.3262 14.5758C31.943 14.3284 29.6348 15.9996 28.4208 15.9996C27.2067 15.9996 25.3107 14.5982 23.3023 14.6357C20.7093 14.6807 18.2887 16.1795 16.9547 18.5027C14.2119 23.254 16.2578 30.231 18.8882 34.0755C20.2072 35.9565 21.7435 38.0549 23.7519 37.98C25.7154 37.8975 26.4498 36.7284 28.8255 36.7284C31.2011 36.7284 31.8681 37.98 33.9215 37.935C36.0348 37.8975 37.3613 36.0465 38.6278 34.1505C40.1491 31.9921 40.7561 29.8713 40.7861 29.7664C40.7337 29.7514 36.6868 28.2076 36.6418 23.5238" fill="white"/>
<path id="Vector_18" d="M32.7681 12.0581C33.8248 10.7317 34.5518 8.93306 34.3494 7.10449C32.8206 7.17194 30.9021 8.16117 29.8005 9.45765C28.8262 10.5968 27.9494 12.4703 28.1742 14.2239C29.8979 14.3513 31.659 13.3546 32.7681 12.0506" fill="white"/>
</g>
<g id="Group_5">
<path id="Vector_19" d="M65.0823 37.6807H62.3394L60.8406 32.9594H55.6247L54.1933 37.6807H51.5254L56.6964 21.6133H59.8889L65.0823 37.6807ZM60.391 30.981L59.0345 26.7842C58.8921 26.3571 58.6223 25.3454 58.2252 23.7566H58.1802C58.0228 24.4386 57.768 25.4503 57.4158 26.7842L56.0818 30.981H60.3985H60.391Z" fill="white"/>
<path id="Vector_20" d="M78.3853 31.7455C78.3853 33.7165 77.8533 35.2753 76.7891 36.4144C75.8373 37.4336 74.6533 37.9357 73.2369 37.9357C71.7081 37.9357 70.6139 37.3886 69.9469 36.2945H69.902V42.3947H67.324V29.902C67.324 28.6655 67.294 27.3914 67.2266 26.0875H69.4898L69.6322 27.9235H69.6846C70.539 26.5371 71.843 25.8477 73.5891 25.8477C74.953 25.8477 76.0996 26.3872 77.0064 27.4664C77.9207 28.5455 78.3778 29.9694 78.3778 31.7306M75.7549 31.828C75.7549 30.7039 75.5001 29.7671 74.9905 29.0402C74.4359 28.2758 73.6865 27.8936 72.7497 27.8936C72.1127 27.8936 71.5357 28.1034 71.0186 28.5231C70.5015 28.9502 70.1643 29.4973 70.0069 30.1793C69.9245 30.5015 69.887 30.7563 69.887 30.9662V32.8996C69.887 33.739 70.1418 34.4509 70.6589 35.028C71.176 35.6125 71.8504 35.8973 72.6748 35.8973C73.6415 35.8973 74.3985 35.5301 74.938 34.7807C75.4776 34.0313 75.7474 33.0495 75.7474 31.8205" fill="white"/>
<path id="Vector_21" d="M91.7099 31.7455C91.7099 33.7165 91.1778 35.2753 90.1136 36.4144C89.1619 37.4336 87.9778 37.9357 86.5614 37.9357C85.0401 37.9357 83.9384 37.3886 83.2715 36.2945H83.2265V42.3947H80.656V29.902C80.656 28.6655 80.626 27.3914 80.5586 26.0875H82.8218L82.9642 27.9235H83.0167C83.871 26.5371 85.175 25.8477 86.9211 25.8477C88.2851 25.8477 89.4242 26.3872 90.3384 27.4664C91.2527 28.5455 91.7099 29.9694 91.7099 31.7306M89.0869 31.828C89.0869 30.7039 88.8321 29.7671 88.3225 29.0402C87.768 28.2758 87.0185 27.8936 86.0818 27.8936C85.4448 27.8936 84.8677 28.1034 84.3506 28.5231C83.8335 28.9502 83.4963 29.4973 83.3389 30.1793C83.2565 30.5015 83.219 30.7563 83.219 30.9662V32.8996C83.219 33.739 83.4738 34.4509 83.9909 35.028C84.508 35.6125 85.175 35.8973 86.0068 35.8973C86.9736 35.8973 87.7305 35.5301 88.2701 34.7807C88.8096 34.0313 89.0794 33.0495 89.0794 31.8205" fill="white"/>
<path id="Vector_22" d="M106.608 33.177C106.608 34.5409 106.135 35.6575 105.176 36.5119C104.127 37.4486 102.673 37.9208 100.8 37.9208C99.0684 37.9208 97.682 37.591 96.6328 36.924L97.2323 34.7807C98.364 35.4627 99.6005 35.8074 100.957 35.8074C101.924 35.8074 102.681 35.5901 103.22 35.1554C103.76 34.7133 104.03 34.1287 104.03 33.4018C104.03 32.7498 103.805 32.2027 103.363 31.7531C102.92 31.3034 102.178 30.8912 101.144 30.509C98.334 29.4599 96.9251 27.9236 96.9251 25.9001C96.9251 24.5812 97.4197 23.4945 98.4014 22.6552C99.3832 21.8083 100.695 21.3887 102.336 21.3887C103.797 21.3887 105.011 21.6435 105.978 22.1531L105.334 24.2514C104.427 23.7568 103.4 23.5095 102.261 23.5095C101.354 23.5095 100.65 23.7343 100.14 24.1765C99.7129 24.5737 99.4956 25.0608 99.4956 25.6304C99.4956 26.2674 99.7429 26.7919 100.23 27.2041C100.657 27.5863 101.437 27.9985 102.568 28.4482C103.947 29.0027 104.966 29.6547 105.618 30.4041C106.27 31.1535 106.593 32.0828 106.593 33.1919" fill="white"/>
<path id="Vector_23" d="M115.114 28.0287H112.281V33.6568C112.281 35.0882 112.783 35.8001 113.788 35.8001C114.245 35.8001 114.627 35.7627 114.927 35.6802L114.994 37.6362C114.492 37.8235 113.818 37.921 112.993 37.921C111.974 37.921 111.18 37.6137 110.61 36.9917C110.041 36.3697 109.748 35.328 109.748 33.8666V28.0287H108.055V26.0952H109.748V23.9744L112.274 23.21V26.0952H115.107V28.0287H115.114Z" fill="white"/>
<path id="Vector_24" d="M127.913 31.7977C127.913 33.5813 127.403 35.0426 126.392 36.1817C125.327 37.3583 123.911 37.9429 122.15 37.9429C120.389 37.9429 119.092 37.3808 118.088 36.2492C117.076 35.1251 116.574 33.7012 116.574 31.985C116.574 30.1864 117.091 28.7176 118.133 27.5785C119.175 26.4319 120.576 25.8623 122.337 25.8623C124.098 25.8623 125.402 26.4244 126.437 27.556C127.426 28.6576 127.913 30.0665 127.913 31.7977ZM125.245 31.8801C125.245 30.8159 125.013 29.8942 124.555 29.1298C124.016 28.208 123.244 27.7433 122.247 27.7433C121.251 27.7433 120.426 28.208 119.887 29.1298C119.422 29.8942 119.197 30.8234 119.197 31.9251C119.197 33.0267 119.422 33.911 119.887 34.6754C120.441 35.5972 121.221 36.0618 122.225 36.0618C123.229 36.0618 123.978 35.5897 124.533 34.6529C125.013 33.8735 125.245 32.9518 125.245 31.8801Z" fill="white"/>
<path id="Vector_25" d="M136.276 28.3653C136.021 28.3204 135.751 28.2979 135.466 28.2979C134.56 28.2979 133.863 28.6426 133.368 29.3246C132.941 29.9316 132.724 30.6885 132.724 31.6103V37.6881H130.153L130.176 29.7518C130.176 28.4178 130.146 27.2038 130.078 26.1021H132.319L132.416 28.3204H132.484C132.754 27.556 133.188 26.9415 133.773 26.4843C134.342 26.0721 134.964 25.8623 135.631 25.8623C135.871 25.8623 136.081 25.8773 136.276 25.9073V28.3653Z" fill="white"/>
<path id="Vector_26" d="M147.788 31.3405C147.788 31.8052 147.758 32.1874 147.698 32.5096H139.979C140.009 33.6562 140.383 34.5256 141.095 35.1326C141.747 35.6722 142.587 35.9419 143.621 35.9419C144.76 35.9419 145.802 35.7621 146.746 35.3949L147.151 37.186C146.056 37.6656 144.76 37.9054 143.261 37.9054C141.47 37.9054 140.054 37.3733 139.034 36.3167C138.015 35.26 137.498 33.8436 137.498 32.06C137.498 30.2764 137.978 28.86 138.929 27.6984C139.926 26.4619 141.283 25.8398 142.976 25.8398C144.67 25.8398 145.914 26.4619 146.768 27.6984C147.45 28.6876 147.788 29.9017 147.788 31.348M145.337 30.6811C145.352 29.9167 145.187 29.2572 144.835 28.7026C144.393 27.9907 143.703 27.6309 142.781 27.6309C141.942 27.6309 141.26 27.9832 140.736 28.6801C140.308 29.2347 140.054 29.9017 139.979 30.6811H145.337Z" fill="white"/>
</g>
</g>
</g>
<defs>
<clipPath id="clip0_2303_12479">
<rect width="163.08" height="48" fill="white" transform="translate(0.25)"/>
</clipPath>
</defs>
</svg>
