<svg width="164" height="48" viewBox="0 0 164 48" fill="none" xmlns="http://www.w3.org/2000/svg">
<g id="Google_Play" clip-path="url(#clip0_2303_12511)">
<g id="Group">
<path id="Vector" d="M157.2 0.607422H6.3881C3.33359 0.607422 0.857422 3.08359 0.857422 6.1381V41.8702C0.857422 44.9247 3.33359 47.4009 6.3881 47.4009H157.2C160.255 47.4009 162.731 44.9247 162.731 41.8702V6.1381C162.731 3.08359 160.255 0.607422 157.2 0.607422Z" fill="#020A0A"/>
<path id="Vector_2" d="M157.2 48H6.3877C3.00035 48 0.25 45.2496 0.25 41.8623V6.1377C0.25 2.75035 3.00035 0 6.3877 0H157.2C160.587 0 163.338 2.75035 163.338 6.1377V41.8623C163.338 45.2496 160.587 48 157.2 48ZM6.3877 1.21405C3.67482 1.21405 1.46405 3.42482 1.46405 6.1452V41.8698C1.46405 44.5827 3.67482 46.7934 6.3877 46.7934H157.2C159.913 46.7934 162.124 44.5827 162.124 41.8698V6.1377C162.124 3.41733 159.913 1.20656 157.2 1.20656H6.3877V1.21405Z" fill="#B2B2B2"/>
</g>
<g id="Group_2">
<path id="Vector_3" d="M82.5189 26.2518C79.6861 26.2518 77.3704 28.4102 77.3704 31.3778C77.3704 34.3455 79.6786 36.5038 82.5189 36.5038C85.3591 36.5038 87.6673 34.3305 87.6673 31.3778C87.6673 28.4252 85.3591 26.2518 82.5189 26.2518ZM82.5189 34.4879C80.9676 34.4879 79.6261 33.2064 79.6261 31.3778C79.6261 29.5493 80.9676 28.2678 82.5189 28.2678C84.0701 28.2678 85.4116 29.5268 85.4116 31.3778C85.4116 33.2289 84.0701 34.4879 82.5189 34.4879ZM71.2926 26.2518C68.4598 26.2518 66.1442 28.4102 66.1442 31.3778C66.1442 34.3455 68.4524 36.5038 71.2926 36.5038C74.1329 36.5038 76.4411 34.3305 76.4411 31.3778C76.4411 28.4252 74.1329 26.2518 71.2926 26.2518ZM71.2926 34.4879C69.7413 34.4879 68.3999 33.2064 68.3999 31.3778C68.3999 29.5493 69.7413 28.2678 71.2926 28.2678C72.8439 28.2678 74.1854 29.5268 74.1854 31.3778C74.1854 33.2289 72.8439 34.4879 71.2926 34.4879ZM57.9381 27.8256V29.9989H63.139C62.9816 31.2205 62.5769 32.1123 61.9549 32.7343C61.198 33.4912 60.0139 34.323 57.9381 34.323C54.7306 34.323 52.2275 31.7376 52.2275 28.5376C52.2275 25.3376 54.7306 22.7521 57.9381 22.7521C59.6692 22.7521 60.9282 23.4341 61.8575 24.3034L63.3938 22.7671C62.0898 21.523 60.3662 20.5713 57.9381 20.5713C53.5465 20.5713 49.8594 24.146 49.8594 28.5301C49.8594 32.9141 53.5465 36.4889 57.9381 36.4889C60.3062 36.4889 62.0973 35.7095 63.4912 34.2556C64.9301 32.8167 65.3723 30.8008 65.3723 29.1671C65.3723 28.665 65.3348 28.1928 65.2523 27.8106H57.9306L57.9381 27.8256ZM112.548 29.5118C112.121 28.3652 110.817 26.2518 108.156 26.2518C105.496 26.2518 103.323 28.3277 103.323 31.3778C103.323 34.2481 105.496 36.5038 108.411 36.5038C110.764 36.5038 112.121 35.065 112.683 34.2331L110.937 33.0715C110.352 33.9259 109.558 34.4879 108.411 34.4879C107.265 34.4879 106.448 33.9633 105.923 32.9366L112.78 30.1038L112.548 29.5193V29.5118ZM105.556 31.2205C105.496 29.242 107.092 28.2303 108.239 28.2303C109.131 28.2303 109.887 28.68 110.142 29.317L105.563 31.2205H105.556ZM99.9802 36.1891H102.236V21.1184H99.9802V36.1891ZM96.2931 27.391H96.2182C95.716 26.7914 94.7418 26.2444 93.5203 26.2444C90.9573 26.2444 88.6041 28.5001 88.6041 31.3928C88.6041 34.2856 90.9573 36.4963 93.5203 36.4963C94.7418 36.4963 95.716 35.9493 96.2182 35.3348H96.2931V36.0692C96.2931 38.0326 95.2439 39.0818 93.5577 39.0818C92.1788 39.0818 91.3245 38.0926 90.9723 37.2533L89.0088 38.0701C89.5709 39.4266 91.0697 41.0978 93.5502 41.0978C96.1882 41.0978 98.4214 39.5465 98.4214 35.7544V26.5516H96.2856V27.3835L96.2931 27.391ZM93.7076 34.4804C92.1563 34.4804 90.8524 33.1764 90.8524 31.3928C90.8524 29.6092 92.1563 28.2678 93.7076 28.2678C95.2589 28.2678 96.443 29.5867 96.443 31.3928C96.443 33.1989 95.2364 34.4804 93.7076 34.4804ZM123.092 21.1184H117.704V36.1891H119.952V30.4785H123.092C125.588 30.4785 128.038 28.6725 128.038 25.8022C128.038 22.9319 125.588 21.1259 123.092 21.1259V21.1184ZM123.152 28.3802H119.952V23.2167H123.152C124.831 23.2167 125.79 24.6106 125.79 25.8022C125.79 26.9938 124.838 28.3877 123.152 28.3877V28.3802ZM137.054 26.2144C135.428 26.2144 133.741 26.9338 133.044 28.5226L135.038 29.3544C135.465 28.5226 136.259 28.2528 137.091 28.2528C138.253 28.2528 139.437 28.9497 139.459 30.1938V30.3511C139.055 30.1188 138.178 29.7666 137.114 29.7666C134.963 29.7666 132.775 30.9507 132.775 33.1615C132.775 35.1774 134.536 36.4739 136.514 36.4739C138.028 36.4739 138.86 35.7919 139.384 34.9975H139.459V36.1591H141.633V30.3811C141.633 27.7057 139.639 26.2144 137.061 26.2144H137.054ZM136.784 34.4729C136.05 34.4729 135.023 34.1057 135.023 33.1914C135.023 32.0298 136.304 31.5802 137.406 31.5802C138.395 31.5802 138.86 31.79 139.459 32.0823C139.287 33.4762 138.08 34.4654 136.784 34.4654V34.4729ZM149.539 26.5441L146.961 33.079H146.886L144.211 26.5441H141.79L145.799 35.672L143.514 40.753H145.859L152.042 26.5441H149.539ZM129.282 36.1816H131.531V21.1109H129.282V36.1816Z" fill="white"/>
<g id="Group_3">
<path id="Vector_4" d="M12.9667 9.12736C12.6145 9.49457 12.4121 10.0716 12.4121 10.821V37.4552C12.4121 38.2046 12.6219 38.7742 12.9667 39.1489L13.0566 39.2388L27.9774 24.318V23.9658L13.0566 9.04492L12.9667 9.13485V9.12736Z" fill="#70C9F3"/>
<path id="Vector_5" d="M32.9527 29.2947L27.9766 24.3186V23.9663L32.9527 18.9902L33.0651 19.0577L38.9555 22.4076C40.6417 23.3668 40.6417 24.9256 38.9555 25.8848L33.0651 29.2347L32.9527 29.3022V29.2947Z" fill="url(#paint0_linear_2303_12511)"/>
<path id="Vector_6" d="M33.0661 29.2272L27.9776 24.1387L12.9668 39.1494C13.5214 39.734 14.4356 39.8089 15.4698 39.2244L33.0661 29.2272Z" fill="url(#paint1_linear_2303_12511)"/>
<path id="Vector_7" d="M33.0661 19.05L15.4698 9.05282C14.4356 8.46828 13.5214 8.53572 12.9668 9.12776L27.9776 24.1385L33.0661 19.05Z" fill="url(#paint2_linear_2303_12511)"/>
</g>
</g>
<g id="Group_4">
<path id="Vector_8" d="M55.6541 9.98197C55.2045 9.57729 54.605 9.32249 53.9455 9.32249C52.4616 9.32249 51.3225 10.544 51.3225 12.0504C51.3225 13.5567 52.4616 14.7632 53.9455 14.7632C55.2195 14.7632 56.1488 14.0213 56.2087 12.8522H54.1928V12.0204H57.3029C57.3029 14.5084 55.9764 15.685 53.9455 15.685C51.9146 15.685 50.3633 14.0588 50.3633 12.0504C50.3633 10.0419 51.9296 8.4082 53.9455 8.4082C54.8822 8.4082 55.7291 8.76792 56.3436 9.34497L55.6541 9.98197Z" fill="white"/>
<path id="Vector_9" d="M62.8038 8.49023V9.38204H59.5589V11.6453H62.3916V12.5446H59.5589V14.6879H62.9012V15.5797H58.5996V8.49023H62.7963H62.8038Z" fill="white"/>
<path id="Vector_10" d="M69.0086 8.49023V9.39703H66.8578V15.5797H65.8911V9.39703H63.7402V8.49023H69.0086Z" fill="white"/>
<path id="Vector_11" d="M73.6018 8.49023V15.5797H72.6426V8.49023H73.6018Z" fill="white"/>
<path id="Vector_12" d="M80.1297 8.49023V9.39703H77.9789V15.5797H77.0121V9.39703H74.8613V8.49023H80.1297Z" fill="white"/>
<path id="Vector_13" d="M86.883 8.4082C88.9139 8.4082 90.4877 10.0344 90.4877 12.0504C90.4877 14.0663 88.9139 15.685 86.883 15.685C84.8521 15.685 83.3008 14.0588 83.3008 12.0504C83.3008 10.0419 84.8671 8.4082 86.883 8.4082ZM86.883 14.7557C88.3743 14.7557 89.5209 13.5492 89.5209 12.0504C89.5209 10.5515 88.3818 9.32998 86.883 9.32998C85.3842 9.32998 84.26 10.544 84.26 12.0504C84.26 13.5567 85.3991 14.7557 86.883 14.7557Z" fill="white"/>
<path id="Vector_14" d="M96.1443 15.5797L92.9143 10.2364V15.5797H91.9551V8.49023H92.8993L96.0993 13.7886V8.49023H97.0586V15.5797H96.1443Z" fill="white"/>
</g>
</g>
<defs>
<linearGradient id="paint0_linear_2303_12511" x1="37.8613" y1="24.1387" x2="8.71661" y2="24.1387" gradientUnits="userSpaceOnUse">
<stop stop-color="#FFE000"/>
<stop offset="0.42" stop-color="#F9BC00"/>
<stop offset="0.78" stop-color="#F6A300"/>
<stop offset="1" stop-color="#F59B00"/>
</linearGradient>
<linearGradient id="paint1_linear_2303_12511" x1="30.3008" y1="26.904" x2="2.89467" y2="54.3101" gradientUnits="userSpaceOnUse">
<stop stop-color="#E7383D"/>
<stop offset="1" stop-color="#C81166"/>
</linearGradient>
<linearGradient id="paint2_linear_2303_12511" x1="2.76727" y1="-6.1528" x2="25.1448" y2="16.2247" gradientUnits="userSpaceOnUse">
<stop stop-color="#229966"/>
<stop offset="0.15" stop-color="#339F63"/>
<stop offset="0.52" stop-color="#5AAF5F"/>
<stop offset="0.82" stop-color="#73B85C"/>
<stop offset="1" stop-color="#7CBC5B"/>
</linearGradient>
<clipPath id="clip0_2303_12511">
<rect width="163.08" height="48" fill="white" transform="translate(0.25)"/>
</clipPath>
</defs>
</svg>
