<svg width="189" height="44" viewBox="0 0 189 44" fill="none" xmlns="http://www.w3.org/2000/svg">
<g id="Layer_1" clip-path="url(#clip0_2440_447)">
<path id="Vector" d="M6.67156 6.61353C6.47243 7.46705 6.35296 8.33372 6.31977 9.21351C6.2534 11.0387 6.54545 12.8574 7.18928 14.571C7.83312 16.2847 8.80884 17.8539 10.0633 19.1932C10.6275 19.7973 11.2448 20.3488 11.9086 20.8412L12.3931 19.7447C11.8687 19.3377 11.3776 18.8912 10.9262 18.4054C9.77792 17.1776 8.88185 15.7397 8.29111 14.1705C7.70037 12.6014 7.43487 10.9337 7.49461 9.25947C7.52116 8.53725 7.61409 7.81503 7.76011 7.11251L6.66492 6.62009L6.67156 6.61353Z" fill="#AFAFAF"/>
<path id="Vector_2" d="M9.31909 7.81504C9.26599 8.19584 9.2328 8.57665 9.21953 8.96402C9.15979 10.5266 9.41202 12.0893 9.96293 13.5534C10.5138 15.0175 11.3502 16.3635 12.4254 17.5124C12.6378 17.7422 12.8635 17.9589 13.0958 18.169L13.5937 17.0529C13.4875 16.9478 13.3813 16.8428 13.2751 16.7311C12.2993 15.6938 11.5427 14.4791 11.0515 13.1529C10.5537 11.8266 10.328 10.415 10.3811 9.00341C10.3877 8.77362 10.4076 8.54382 10.4276 8.31402L9.31909 7.80847V7.81504Z" fill="#AFAFAF"/>
<path id="Vector_3" d="M12.2469 9.14136C12.2402 10.3691 12.4526 11.5838 12.8841 12.7327C13.2359 13.6782 13.7337 14.5646 14.351 15.359L14.9152 14.0853C14.5501 13.5338 14.2448 12.9363 14.0125 12.3191C13.6939 11.4787 13.5146 10.5924 13.4615 9.69943L12.2402 9.14792L12.2469 9.14136Z" fill="#AFAFAF"/>
<path id="Vector_4" d="M14.9082 10.3493C15.0011 10.8155 15.1339 11.2685 15.2998 11.715C15.3994 11.971 15.5056 12.2271 15.6251 12.4766L16.2954 10.9731L14.9082 10.3428V10.3493Z" fill="#AFAFAF"/>
<path id="Vector_5" d="M0 0.947388L42.1549 0.953953L19.4678 9.7847L0 0.947388Z" fill="#A7A6A6"/>
<path id="Vector_6" d="M10.6992 29.4816L42.1544 0.953979L19.4674 9.78473L10.6992 29.4816Z" fill="#888989"/>
<path id="Vector_7" d="M52.8543 16.6917L48.3142 14.9387C47.2257 14.5316 46.8805 13.9801 46.8805 13.1397V12.8049C46.8805 11.7478 47.6306 11.2423 49.1107 11.2423H54.8654C55.1774 11.2423 55.3234 11.1241 55.3234 10.8089V8.8655C55.3234 8.64884 55.1774 8.53065 54.8854 8.43217C52.9937 8.09732 51.8255 7.95288 49.8143 7.95288C45.5198 7.95288 43.0175 8.98368 43.0175 12.5357V13.0609C43.0175 15.8447 43.8936 17.217 45.9048 17.9589L50.6374 19.7119C51.8985 20.1912 52.383 20.6705 52.383 21.7013V22.0164C52.383 23.0735 51.633 23.5068 50.1727 23.5068H43.283C42.9644 23.5068 42.8184 23.6513 42.8184 23.9401V25.7654C42.8184 26.0805 42.9179 26.225 43.2299 26.2906C45.5132 26.6517 47.4314 26.7962 49.2236 26.7962C53.4251 26.7962 56.2129 25.7391 56.2129 22.1871V21.5174C56.2129 18.7336 55.1708 17.6043 52.841 16.6917H52.8543Z" fill="#A7A6A6"/>
<path id="Vector_8" d="M64.1636 13.12C59.2584 13.12 58.0703 14.4659 58.0703 19.9614C58.0703 25.4568 59.2584 26.8027 64.1636 26.8027C65.7632 26.8027 67.5089 26.7305 68.7965 26.4679C69.0156 26.4416 69.1351 26.3497 69.1351 26.0871V24.0977C69.1351 23.8548 69.0156 23.7366 68.77 23.7366H64.4755C62.3648 23.7366 61.7807 23.3558 61.7342 21.1891H69.3541C69.9847 21.1891 70.1307 21.0184 70.1307 20.5391V19.7972C70.1041 14.4462 68.9426 13.1266 64.1636 13.1266V13.12ZM61.7143 18.8583C61.7409 16.7442 62.3449 16.1927 64.1636 16.1927C65.9822 16.1927 66.4933 16.7442 66.5199 18.8583H61.7143Z" fill="#A7A6A6"/>
<path id="Vector_9" d="M78.5549 13.12C76.7362 13.12 74.3799 13.166 72.7537 13.5271C72.5081 13.573 72.3887 13.5993 72.3887 13.8882V26.2972C72.3887 26.5598 72.5081 26.678 72.7537 26.678H75.6411C75.8866 26.678 76.0061 26.5598 76.0061 26.2972V16.1927H78.2164C80.4466 16.1927 80.8117 16.3634 80.8117 19.7907V26.2972C80.8117 26.5598 80.9312 26.678 81.1768 26.678H84.0375C84.2831 26.678 84.4225 26.5598 84.4225 26.2972V18.878C84.4225 13.9801 83.2078 13.12 78.5483 13.12H78.5549Z" fill="#A7A6A6"/>
<path id="Vector_10" d="M98.6003 8.09729H95.7396C95.4741 8.09729 95.3745 8.21547 95.3745 8.4781V13.2579C94.4784 13.1594 93.5027 13.1134 92.3876 13.1134C87.9737 13.1134 86.832 14.6498 86.832 19.981C86.832 25.3123 87.9936 26.7962 93.1178 26.7962C94.7904 26.7962 96.4631 26.6517 98.4543 26.3431C98.7729 26.2972 98.9654 26.1002 98.9654 25.7457V8.48466C98.9654 8.22204 98.8658 8.10386 98.6003 8.10386V8.09729ZM95.3745 23.5527C94.6444 23.6709 93.6288 23.7234 93.0447 23.7234C90.6154 23.7234 90.4229 22.7846 90.4229 19.9548C90.4229 16.8558 90.7349 16.2124 93.1908 16.2124H95.3745V23.5593V23.5527Z" fill="#A7A6A6"/>
<path id="Vector_11" d="M109.347 11.2423H114.325C114.464 11.2423 114.557 11.1963 114.617 11.1176H102.431C102.245 11.5443 102.092 12.0302 101.973 12.562H106.121C106.685 11.61 107.668 11.2423 109.347 11.2423Z" fill="#A7A6A6"/>
<path id="Vector_12" d="M105.437 16.1862H101.58C101.567 16.5604 101.561 16.9412 101.561 17.3417H105.417C105.417 16.9281 105.424 16.5473 105.437 16.1862Z" fill="#A7A6A6"/>
<path id="Vector_13" d="M102.682 10.612H114.689V9.27917H103.817C103.365 9.64028 102.987 10.0736 102.682 10.612Z" fill="#A7A6A6"/>
<path id="Vector_14" d="M105.425 17.7948H101.568C101.568 18.215 101.582 18.6221 101.602 19.0094H105.458C105.438 18.6352 105.431 18.2281 105.425 17.7948Z" fill="#A7A6A6"/>
<path id="Vector_15" d="M105.709 21.0907H101.773C101.833 21.5109 101.906 21.8983 101.992 22.2659H106.174C105.968 21.9508 105.816 21.5569 105.703 21.0907H105.709Z" fill="#A7A6A6"/>
<path id="Vector_16" d="M105.484 19.4624H101.621C101.648 19.876 101.681 20.27 101.721 20.6376H105.624C105.564 20.2831 105.517 19.8957 105.484 19.4624Z" fill="#A7A6A6"/>
<path id="Vector_17" d="M114.69 23.8679C114.69 23.625 114.571 23.5068 114.325 23.5068H109.347C108.026 23.5068 107.143 23.277 106.553 22.7124H102.105C102.232 23.1457 102.391 23.5331 102.563 23.8876H114.684V23.8679H114.69Z" fill="#A7A6A6"/>
<path id="Vector_18" d="M114.689 24.3407H102.814C103.14 24.8594 103.538 25.2796 104.022 25.6144H114.696V24.3407H114.689Z" fill="#A7A6A6"/>
<path id="Vector_19" d="M105.881 13.0741H101.866C101.806 13.4089 101.753 13.7569 101.713 14.1312H105.609C105.675 13.7307 105.768 13.3827 105.881 13.0741Z" fill="#A7A6A6"/>
<path id="Vector_20" d="M109.347 26.7962C111.484 26.7962 112.938 26.678 114.126 26.4351C114.392 26.3628 114.571 26.2644 114.644 26.0674H104.787C105.915 26.5795 107.402 26.7962 109.347 26.7962Z" fill="#A7A6A6"/>
<path id="Vector_21" d="M105.543 14.5842H101.667C101.634 14.9519 101.607 15.3393 101.594 15.7398H105.45C105.47 15.3196 105.503 14.9388 105.543 14.5842Z" fill="#A7A6A6"/>
<path id="Vector_22" d="M114.132 8.31399C112.944 8.09732 111.484 7.95288 109.353 7.95288C107.222 7.95288 105.775 8.19581 104.627 8.76702H114.663C114.603 8.51096 114.431 8.39278 114.132 8.31399Z" fill="#A7A6A6"/>
<path id="Vector_23" d="M120.171 17.7948H116.501C116.468 18.1756 116.441 18.5695 116.428 19.0094H120.045C120.065 18.5301 120.105 18.1296 120.171 17.7948Z" fill="#A7A6A6"/>
<path id="Vector_24" d="M122.601 13.12C120.397 13.12 118.937 13.3761 117.994 14.1311H127.22C126.278 13.3761 124.818 13.12 122.601 13.12Z" fill="#A7A6A6"/>
<path id="Vector_25" d="M120.053 21.0907H116.436C116.449 21.5109 116.482 21.8983 116.515 22.2659H120.206C120.126 21.9442 120.08 21.5569 120.053 21.0907Z" fill="#A7A6A6"/>
<path id="Vector_26" d="M128.635 22.719H124.872C124.533 23.4872 123.87 23.7301 122.602 23.7301C121.334 23.7301 120.684 23.4872 120.352 22.719H116.568C116.628 23.1523 116.708 23.5463 116.814 23.8942H128.39C128.496 23.5397 128.576 23.1523 128.635 22.719Z" fill="#A7A6A6"/>
<path id="Vector_27" d="M120.026 19.9614C120.026 19.7907 120.026 19.6265 120.026 19.4624H116.415C116.415 19.6265 116.408 19.7841 116.408 19.9614C116.408 20.1977 116.408 20.421 116.421 20.6442H120.039C120.039 20.4275 120.032 20.2043 120.032 19.9614H120.026Z" fill="#A7A6A6"/>
<path id="Vector_28" d="M122.603 26.7962C124.501 26.7962 125.848 26.5992 126.791 26.0674H118.428C119.37 26.5992 120.711 26.7962 122.603 26.7962Z" fill="#A7A6A6"/>
<path id="Vector_29" d="M128.229 24.3407H116.979C117.184 24.8594 117.463 25.2796 117.828 25.6144H127.393C127.751 25.2796 128.03 24.8594 128.236 24.3407H128.229Z" fill="#A7A6A6"/>
<path id="Vector_30" d="M122.602 16.1862C123.95 16.1862 124.613 16.4619 124.932 17.3417H128.656C128.603 16.9149 128.53 16.5341 128.437 16.1862H116.775C116.682 16.5341 116.602 16.9149 116.549 17.3417H120.299C120.611 16.4619 121.275 16.1862 122.602 16.1862Z" fill="#A7A6A6"/>
<path id="Vector_31" d="M125.17 21.0907C125.144 21.5569 125.097 21.9442 125.018 22.2659H128.681C128.721 21.8983 128.748 21.5109 128.761 21.0907H125.164H125.17Z" fill="#A7A6A6"/>
<path id="Vector_32" d="M128.703 17.7948H125.059C125.125 18.1296 125.165 18.5367 125.185 19.0094H128.782C128.769 18.5695 128.742 18.1756 128.709 17.7948H128.703Z" fill="#A7A6A6"/>
<path id="Vector_33" d="M128.788 19.9614C128.788 19.7907 128.788 19.6331 128.781 19.4624H125.19C125.19 19.62 125.19 19.7841 125.19 19.9614C125.19 20.2043 125.19 20.4275 125.184 20.6442H128.774C128.774 20.421 128.781 20.1977 128.781 19.9614H128.788Z" fill="#A7A6A6"/>
<path id="Vector_34" d="M127.667 14.5842H117.545C117.279 14.9059 117.073 15.2867 116.914 15.7398H128.297C128.138 15.2867 127.932 14.8994 127.667 14.5842Z" fill="#A7A6A6"/>
<path id="Vector_35" d="M134.881 17.7948H131.264V19.0094H134.881V17.7948Z" fill="#A7A6A6"/>
<path id="Vector_36" d="M134.881 21.0907H131.264V22.2659H134.881V21.0907Z" fill="#A7A6A6"/>
<path id="Vector_37" d="M143.303 22.719H139.686V23.8942H143.303V22.719Z" fill="#A7A6A6"/>
<path id="Vector_38" d="M131.264 26.2972C131.264 26.5598 131.383 26.678 131.629 26.678H134.516C134.762 26.678 134.881 26.5598 134.881 26.2972V26.074H131.264V26.2972Z" fill="#A7A6A6"/>
<path id="Vector_39" d="M139.686 26.2972C139.686 26.5598 139.806 26.678 140.051 26.678H142.912C143.158 26.678 143.297 26.5598 143.297 26.2972V26.074H139.68V26.2972H139.686Z" fill="#A7A6A6"/>
<path id="Vector_40" d="M134.881 22.719H131.264V23.8942H134.881V22.719Z" fill="#A7A6A6"/>
<path id="Vector_41" d="M134.882 16.1862H137.093C138.586 16.1862 139.243 16.2649 139.515 17.3417H143.252C143.219 16.9149 143.166 16.5341 143.1 16.1862H131.271V17.3417H134.889V16.1862H134.882Z" fill="#A7A6A6"/>
<path id="Vector_42" d="M134.881 19.4624H131.264V20.6376H134.881V19.4624Z" fill="#A7A6A6"/>
<path id="Vector_43" d="M137.424 13.12C135.605 13.12 133.249 13.166 131.623 13.5271C131.377 13.573 131.258 13.5993 131.258 13.8882V14.1311H142.064C141.174 13.3301 139.714 13.12 137.417 13.12H137.424Z" fill="#A7A6A6"/>
<path id="Vector_44" d="M143.303 21.0907H139.686V22.2659H143.303V21.0907Z" fill="#A7A6A6"/>
<path id="Vector_45" d="M143.297 19.4624H139.68C139.68 19.574 139.68 19.6725 139.68 19.7907V20.6376H143.297V19.4624Z" fill="#A7A6A6"/>
<path id="Vector_46" d="M143.297 18.8781C143.297 18.4908 143.284 18.1362 143.271 17.7948H139.594C139.64 18.1231 139.66 18.5301 139.673 19.0094H143.297V18.8781Z" fill="#A7A6A6"/>
<path id="Vector_47" d="M142.986 15.7398C142.859 15.2802 142.687 14.8994 142.468 14.5842H131.264V15.7398H142.986Z" fill="#A7A6A6"/>
<path id="Vector_48" d="M143.303 24.3407H139.686V25.6144H143.303V24.3407Z" fill="#A7A6A6"/>
<path id="Vector_49" d="M134.881 24.3407H131.264V25.6144H134.881V24.3407Z" fill="#A7A6A6"/>
<path id="Vector_50" d="M145.069 15.7398H153.08C153.094 15.6938 153.107 15.6478 153.107 15.5887V14.5776H145.049V15.5887C145.049 15.6478 145.055 15.6938 145.069 15.7398Z" fill="#A7A6A6"/>
<path id="Vector_51" d="M150.459 9.87665C150.459 9.61402 150.313 9.44332 150.074 9.51554L147.214 10.2575C146.981 10.3034 146.888 10.3953 146.875 10.6054H150.459V9.87008V9.87665Z" fill="#A7A6A6"/>
<path id="Vector_52" d="M150.46 21.0907H146.869V22.2659H150.46V21.0907Z" fill="#A7A6A6"/>
<path id="Vector_53" d="M146.868 13.3105H145.434C145.168 13.3105 145.049 13.4286 145.049 13.6716V14.1312H153.107V13.6716C153.107 13.4286 152.961 13.3105 152.695 13.3105H150.465V13.0741H146.874V13.3105H146.868Z" fill="#A7A6A6"/>
<path id="Vector_54" d="M150.46 17.7948H146.869V19.0094H150.46V17.7948Z" fill="#A7A6A6"/>
<path id="Vector_55" d="M150.844 26.7962C151.375 26.7962 152.058 26.7502 152.908 26.5795C153.174 26.5335 153.3 26.4088 153.3 26.1265V26.0674H147.645C148.388 26.7633 149.583 26.7962 150.844 26.7962Z" fill="#A7A6A6"/>
<path id="Vector_56" d="M150.46 11.1176H146.869V12.562H150.46V11.1176Z" fill="#A7A6A6"/>
<path id="Vector_57" d="M152.882 23.7235H151.886C150.904 23.7235 150.519 23.5528 150.466 22.7124H146.861V23.6972C146.861 23.7629 146.861 23.822 146.868 23.8876H153.253C153.2 23.7695 153.081 23.7235 152.882 23.7235Z" fill="#A7A6A6"/>
<path id="Vector_58" d="M150.46 19.4624H146.869V20.6376H150.46V19.4624Z" fill="#A7A6A6"/>
<path id="Vector_59" d="M150.46 16.1862H146.869V17.3417H150.46V16.1862Z" fill="#A7A6A6"/>
<path id="Vector_60" d="M146.902 24.3407C146.962 24.8725 147.095 25.2927 147.287 25.6144H153.301V24.3407H146.909H146.902Z" fill="#A7A6A6"/>
<path id="Vector_61" d="M158.073 22.719H154.488C154.495 23.1523 154.528 23.5463 154.588 23.8942H159.5C158.55 23.8155 158.139 23.5003 158.066 22.719H158.073Z" fill="#A7A6A6"/>
<path id="Vector_62" d="M158.066 22.2659C158.106 21.6094 158.365 21.2351 158.976 21.0907H154.681C154.588 21.4321 154.529 21.826 154.502 22.2659H158.06H158.066Z" fill="#A7A6A6"/>
<path id="Vector_63" d="M162.546 22.719V23.6776C162.108 23.7958 161.464 23.8614 160.92 23.8942H166.137V22.719H162.546Z" fill="#A7A6A6"/>
<path id="Vector_64" d="M160.091 26.7962C161.764 26.7962 163.901 26.678 165.6 26.2906C165.779 26.2315 165.892 26.1527 165.972 26.0674H155.85C156.792 26.6911 158.206 26.7962 160.091 26.7962Z" fill="#A7A6A6"/>
<path id="Vector_65" d="M155.868 16.1862H160.262C161.563 16.1862 162.28 16.5473 162.479 17.3417H166.136V17.2432C166.136 16.869 166.11 16.5144 166.057 16.1862H155.861C155.861 16.1862 155.861 16.1862 155.868 16.1862Z" fill="#A7A6A6"/>
<path id="Vector_66" d="M166.138 21.0907H162.547V22.2659H166.138V21.0907Z" fill="#A7A6A6"/>
<path id="Vector_67" d="M166.138 24.3407H154.695C154.835 24.8659 155.047 25.2927 155.333 25.6144H166.138C166.138 25.6144 166.138 25.5684 166.138 25.5422V24.3341V24.3407Z" fill="#A7A6A6"/>
<path id="Vector_68" d="M165.958 15.7398C165.838 15.3064 165.652 14.9191 165.367 14.5842H155.523V15.7398H165.951H165.958Z" fill="#A7A6A6"/>
<path id="Vector_69" d="M160.262 13.12C158.755 13.12 157.348 13.1922 155.868 13.4811C155.622 13.5271 155.529 13.5796 155.529 13.8619V14.1311H164.888C164.012 13.4745 162.572 13.12 160.262 13.12Z" fill="#A7A6A6"/>
<path id="Vector_70" d="M154.841 20.6376H166.131V19.4624H155.777C155.365 19.7447 155.053 20.1321 154.834 20.6376H154.841Z" fill="#A7A6A6"/>
<path id="Vector_71" d="M162.547 17.8472V18.7139H159.467C158.392 18.7139 157.496 18.7927 156.766 19.0159H166.144V17.8013H162.547C162.547 17.8013 162.547 17.8341 162.547 17.8538V17.8472Z" fill="#A7A6A6"/>
<path id="Vector_72" d="M168.634 22.2659H172.304C172.224 21.9442 172.178 21.5569 172.158 21.0907H168.561C168.574 21.5109 168.6 21.8983 168.634 22.2659Z" fill="#A7A6A6"/>
<path id="Vector_73" d="M168.904 23.8942H179.013C178.953 23.7892 178.834 23.7301 178.655 23.7301H174.699C173.431 23.7301 172.774 23.4806 172.442 22.719H168.672C168.725 23.1523 168.805 23.5463 168.904 23.8942Z" fill="#A7A6A6"/>
<path id="Vector_74" d="M168.553 19.0094H172.15C172.17 18.5301 172.203 18.1296 172.27 17.7948H168.619C168.586 18.1756 168.566 18.5695 168.553 19.0094Z" fill="#A7A6A6"/>
<path id="Vector_75" d="M179.066 13.9079C179.066 13.5993 178.92 13.4745 178.655 13.4286C177.347 13.166 175.595 13.12 174.699 13.12C172.429 13.12 170.968 13.3761 170.039 14.1311H179.066V13.9079Z" fill="#A7A6A6"/>
<path id="Vector_76" d="M174.701 26.7962C175.597 26.7962 177.349 26.7502 178.657 26.4613C178.902 26.4154 179.035 26.3037 179.062 26.0674H170.473C171.402 26.5992 172.756 26.7962 174.701 26.7962Z" fill="#A7A6A6"/>
<path id="Vector_77" d="M169.057 24.3407C169.256 24.8594 169.521 25.2796 169.873 25.6144H179.066V24.3407H169.057Z" fill="#A7A6A6"/>
<path id="Vector_78" d="M168.539 19.9614C168.539 20.1977 168.539 20.421 168.546 20.6442H172.137C172.137 20.4275 172.13 20.2043 172.13 19.9614C172.13 19.7907 172.13 19.6265 172.13 19.4624H168.539C168.539 19.6265 168.539 19.7841 168.539 19.9614Z" fill="#A7A6A6"/>
<path id="Vector_79" d="M168.66 17.3417H172.39C172.702 16.4619 173.353 16.1862 174.7 16.1862H178.656C178.656 16.1862 178.656 16.1862 178.663 16.1862H168.866C168.78 16.5341 168.707 16.9149 168.66 17.3417Z" fill="#A7A6A6"/>
<path id="Vector_80" d="M168.998 15.7398H179.074V14.5842H169.609C169.35 14.9059 169.157 15.2867 169.005 15.7398H168.998Z" fill="#A7A6A6"/>
<path id="Vector_81" d="M185.79 17.7948H182.199V19.0094H185.79V17.7948Z" fill="#A7A6A6"/>
<path id="Vector_82" d="M180.381 15.5887C180.381 15.6478 180.387 15.6938 180.401 15.7398H188.412C188.426 15.6938 188.439 15.6478 188.439 15.5887V14.5776H180.381V15.5887Z" fill="#A7A6A6"/>
<path id="Vector_83" d="M185.79 16.1862H182.199V17.3417H185.79V16.1862Z" fill="#A7A6A6"/>
<path id="Vector_84" d="M185.791 9.87665C185.791 9.61402 185.645 9.44332 185.406 9.51554L182.546 10.2575C182.313 10.3034 182.22 10.3953 182.207 10.6054H185.791V9.87008V9.87665Z" fill="#A7A6A6"/>
<path id="Vector_85" d="M185.79 21.0907H182.199V22.2659H185.79V21.0907Z" fill="#A7A6A6"/>
<path id="Vector_86" d="M182.2 13.3105H180.766C180.5 13.3105 180.381 13.4286 180.381 13.6716V14.1312H188.439V13.6716C188.439 13.4286 188.293 13.3105 188.027 13.3105H185.797V13.0741H182.206V13.3105H182.2Z" fill="#A7A6A6"/>
<path id="Vector_87" d="M186.182 26.7962C186.713 26.7962 187.397 26.7502 188.247 26.5795C188.512 26.5335 188.632 26.4088 188.632 26.1265V26.0674H182.977C183.72 26.7633 184.915 26.7962 186.176 26.7962H186.182Z" fill="#A7A6A6"/>
<path id="Vector_88" d="M185.79 11.1176H182.199V12.562H185.79V11.1176Z" fill="#A7A6A6"/>
<path id="Vector_89" d="M185.79 19.4624H182.199V20.6376H185.79V19.4624Z" fill="#A7A6A6"/>
<path id="Vector_90" d="M182.2 23.7038C182.2 23.7695 182.2 23.8286 182.207 23.8942H188.585C188.532 23.7761 188.413 23.7301 188.214 23.7301H187.218C186.236 23.7301 185.851 23.5594 185.798 22.719H182.193V23.7038H182.2Z" fill="#A7A6A6"/>
<path id="Vector_91" d="M182.617 25.621H188.624V24.3473H182.232C182.292 24.8791 182.425 25.2993 182.617 25.621Z" fill="#A7A6A6"/>
<path id="Vector_92" d="M8.35657 43.0526C7.81229 43.0526 7.32775 42.9673 6.88968 42.8031C6.45824 42.639 6.09317 42.3961 5.79449 42.0743C5.4958 41.7526 5.26349 41.3587 5.10419 40.8991C4.94488 40.4395 4.86523 39.9077 4.86523 39.3037C4.86523 38.6996 4.95816 38.1744 5.14401 37.7082C5.32986 37.2486 5.58209 36.8547 5.90069 36.533C6.21929 36.2112 6.59763 35.9683 7.02906 35.8042C7.4605 35.64 7.92513 35.5547 8.42294 35.5547C8.72163 35.5547 8.99377 35.5744 9.23936 35.6203C9.48495 35.6663 9.69735 35.7188 9.87656 35.7714C10.0558 35.8239 10.2084 35.883 10.3279 35.9486C10.4474 36.0143 10.527 36.0537 10.5801 36.0799L10.1952 37.1436C10.0292 37.0385 9.79027 36.94 9.47831 36.8481C9.16634 36.7562 8.83447 36.7102 8.46941 36.7102C8.15744 36.7102 7.86539 36.7628 7.59325 36.8678C7.32112 36.9729 7.0888 37.137 6.88968 37.3471C6.69055 37.5572 6.53789 37.8264 6.42505 38.1547C6.31221 38.4764 6.25911 38.8572 6.25911 39.284C6.25911 39.6648 6.30558 40.0127 6.39186 40.3279C6.47815 40.643 6.6109 40.9188 6.79675 41.1486C6.97596 41.3784 7.20828 41.5622 7.48705 41.687C7.76583 41.8117 8.0977 41.8774 8.48932 41.8774C8.95394 41.8774 9.33892 41.8314 9.63097 41.7395C9.92302 41.6476 10.1487 41.5557 10.308 41.4769L10.6664 42.5405C10.5801 42.593 10.4673 42.6521 10.3279 42.7046C10.1819 42.7572 10.0159 42.8163 9.82346 42.8622C9.63097 42.9082 9.4053 42.9541 9.16635 42.987C8.92076 43.0198 8.66189 43.0329 8.38312 43.0329L8.35657 43.0526Z" fill="#AFAFAF"/>
<path id="Vector_93" d="M19.6929 40.19C19.6929 40.6168 19.6265 41.0041 19.507 41.3587C19.3875 41.7132 19.2017 42.0087 18.976 42.2582C18.7437 42.5077 18.4716 42.6981 18.1463 42.8359C17.8211 42.9738 17.4627 43.0395 17.071 43.0395C16.6794 43.0395 16.3276 42.9673 16.0024 42.8359C15.6838 42.6981 15.405 42.5011 15.1793 42.2582C14.947 42.0087 14.7678 41.7067 14.6417 41.3587C14.5156 41.0107 14.4492 40.6168 14.4492 40.19C14.4492 39.7632 14.5156 39.3759 14.6417 39.0279C14.7678 38.6799 14.9537 38.3845 15.186 38.135C15.4183 37.8855 15.6971 37.6951 16.0157 37.5638C16.3343 37.4325 16.6861 37.3602 17.071 37.3602C17.456 37.3602 17.8078 37.4259 18.133 37.5638C18.4583 37.6951 18.7371 37.892 18.9627 38.135C19.1884 38.3779 19.3743 38.6799 19.5004 39.0279C19.6265 39.3759 19.6929 39.7632 19.6929 40.19ZM18.3985 40.19C18.3985 39.6516 18.2791 39.2249 18.0468 38.9097C17.8144 38.5946 17.4892 38.437 17.071 38.437C16.6529 38.437 16.3276 38.5946 16.0953 38.9097C15.863 39.2249 15.7435 39.6516 15.7435 40.19C15.7435 40.7284 15.863 41.1683 16.0953 41.4834C16.3276 41.7986 16.6529 41.9627 17.071 41.9627C17.4892 41.9627 17.8144 41.8051 18.0468 41.4834C18.2791 41.1683 18.3985 40.735 18.3985 40.19Z" fill="#AFAFAF"/>
<path id="Vector_94" d="M24.1394 37.6623C24.385 37.5966 24.7036 37.531 25.0886 37.4653C25.4802 37.3997 25.9117 37.3734 26.3829 37.3734C26.8276 37.3734 27.1993 37.4325 27.5047 37.5572C27.8034 37.6754 28.0423 37.8461 28.2215 38.0628C28.4007 38.2795 28.5268 38.5421 28.5999 38.8507C28.6729 39.1593 28.7127 39.4941 28.7127 39.8618V42.9017H27.4449V40.0587C27.4449 39.7699 27.425 39.5204 27.3852 39.3168C27.3454 39.1133 27.2856 38.9492 27.1993 38.8178C27.1131 38.6931 26.9936 38.5946 26.8409 38.5355C26.6883 38.4764 26.509 38.4502 26.29 38.4502C26.1307 38.4502 25.9648 38.4633 25.7856 38.483C25.613 38.5027 25.4802 38.5224 25.4006 38.5355V42.9017H24.1328V37.6689L24.1394 37.6623Z" fill="#AFAFAF"/>
<path id="Vector_95" d="M33.3934 37.6623C33.6389 37.5966 33.9575 37.531 34.3425 37.4653C34.7341 37.3997 35.1656 37.3734 35.6368 37.3734C36.0816 37.3734 36.4533 37.4325 36.7586 37.5572C37.0573 37.6754 37.2962 37.8461 37.4754 38.0628C37.6546 38.2795 37.7808 38.5421 37.8538 38.8507C37.9268 39.1593 37.9666 39.4941 37.9666 39.8618V42.9017H36.6988V40.0587C36.6988 39.7699 36.6789 39.5204 36.6391 39.3168C36.5993 39.1133 36.5395 38.9492 36.4533 38.8178C36.367 38.6931 36.2475 38.5946 36.0948 38.5355C35.9422 38.4764 35.7629 38.4502 35.5439 38.4502C35.3846 38.4502 35.2187 38.4633 35.0395 38.483C34.8669 38.5027 34.7341 38.5224 34.6545 38.5355V42.9017H33.3867V37.6689L33.3934 37.6623Z" fill="#AFAFAF"/>
<path id="Vector_96" d="M42.3477 40.2163C42.3477 39.7371 42.4207 39.3234 42.5601 38.9623C42.6994 38.6012 42.8919 38.3057 43.1309 38.0694C43.3698 37.833 43.642 37.6492 43.9473 37.531C44.2526 37.4128 44.5712 37.3472 44.8898 37.3472C45.6399 37.3472 46.2306 37.577 46.6554 38.0431C47.0736 38.5027 47.286 39.1921 47.286 40.1113C47.286 40.1835 47.286 40.2557 47.286 40.3411C47.286 40.4264 47.2793 40.5052 47.2727 40.5775H43.6619C43.6951 41.0108 43.8544 41.3456 44.1265 41.5886C44.3987 41.8249 44.8035 41.9431 45.3213 41.9431C45.6266 41.9431 45.9054 41.9168 46.1642 41.8577C46.4165 41.8052 46.6222 41.7461 46.7682 41.6805L46.9342 42.7047C46.8678 42.7375 46.7682 42.7769 46.6488 42.8163C46.5293 42.8557 46.3899 42.8885 46.2306 42.9214C46.0713 42.9542 45.9054 42.9805 45.7262 43.0002C45.5469 43.0199 45.3611 43.033 45.1686 43.033C44.6907 43.033 44.2725 42.9608 43.9141 42.8229C43.5623 42.6784 43.2636 42.488 43.038 42.232C42.8056 41.9825 42.6397 41.6805 42.5269 41.3456C42.414 41.0042 42.3609 40.63 42.3609 40.2229L42.3477 40.2163ZM46.0182 39.6583C46.0182 39.4876 45.9917 39.3234 45.9452 39.1658C45.8987 39.0083 45.8257 38.877 45.7328 38.7653C45.6399 38.6537 45.5204 38.5618 45.3876 38.4962C45.2549 38.4305 45.089 38.3977 44.9031 38.3977C44.7173 38.3977 44.538 38.4371 44.392 38.5093C44.246 38.5815 44.1199 38.6734 44.0203 38.7916C43.9207 38.9098 43.8411 39.0411 43.788 39.1921C43.7349 39.3431 43.6951 39.5007 43.6752 39.6583H46.0315H46.0182Z" fill="#AFAFAF"/>
<path id="Vector_97" d="M51.4531 40.1967C51.4531 39.7962 51.5129 39.4219 51.639 39.0739C51.7651 38.726 51.9443 38.424 52.1766 38.1679C52.4089 37.9118 52.6943 37.7149 53.0262 37.5704C53.3581 37.426 53.7364 37.3538 54.1546 37.3538C54.6723 37.3538 55.1569 37.4457 55.6215 37.6361L55.3494 38.6603C55.2033 38.5947 55.0374 38.5487 54.8515 38.5027C54.6657 38.4633 54.4732 38.4371 54.2608 38.4371C53.763 38.4371 53.3913 38.5881 53.1324 38.8967C52.8736 39.2053 52.7474 39.6386 52.7474 40.1967C52.7474 40.7547 52.8669 41.1618 53.1125 41.477C53.3581 41.7921 53.7696 41.9497 54.3471 41.9497C54.5661 41.9497 54.7785 41.93 54.9843 41.8906C55.19 41.8512 55.3759 41.7987 55.5286 41.733L55.7078 42.7704C55.5684 42.836 55.356 42.9017 55.0772 42.9542C54.7984 43.0067 54.5064 43.0396 54.2011 43.0396C53.7364 43.0396 53.3249 42.9674 52.9798 42.8295C52.6346 42.685 52.3492 42.4946 52.1235 42.2386C51.8978 41.9891 51.7253 41.6871 51.6191 41.3391C51.5062 40.9911 51.4531 40.6103 51.4531 40.2032V40.1967Z" fill="#AFAFAF"/>
<path id="Vector_98" d="M59.7715 36.0603L61.0392 35.8568V37.4916H62.984V38.5356H61.0392V40.7416C61.0392 41.175 61.1123 41.4835 61.2516 41.6739C61.391 41.8578 61.63 41.9563 61.9619 41.9563C62.1942 41.9563 62.3933 41.93 62.5725 41.884C62.7517 41.8381 62.8911 41.7921 62.9973 41.7462L63.2031 42.7376C63.0571 42.8032 62.8646 42.8623 62.6256 42.928C62.3867 42.9936 62.1079 43.0265 61.7893 43.0265C61.3977 43.0265 61.0724 42.9739 60.8136 42.8689C60.5547 42.7638 60.3423 42.6128 60.1896 42.4159C60.037 42.2189 59.9308 41.9825 59.8644 41.7002C59.798 41.4179 59.7715 41.1027 59.7715 40.7416V36.0538V36.0603Z" fill="#AFAFAF"/>
<path id="Vector_99" d="M72.3555 39.3694H75.1698V40.5184H72.3555V39.3694Z" fill="#AFAFAF"/>
<path id="Vector_100" d="M87.0385 35.6532C88.0939 35.6532 88.897 35.8436 89.4612 36.2244C90.0254 36.6052 90.3042 37.1961 90.3042 38.0037C90.3042 38.4239 90.2311 38.785 90.0785 39.087C89.9258 39.389 89.7134 39.632 89.428 39.8224C89.1426 40.0128 88.7908 40.1506 88.3793 40.2426C87.9677 40.3345 87.4965 40.3739 86.9655 40.3739H86.3084V42.9016H84.9941V35.837C85.2995 35.7714 85.638 35.7189 86.0163 35.6992C86.388 35.6729 86.7332 35.6598 87.0451 35.6598L87.0385 35.6532ZM87.1314 36.7825C86.7995 36.7825 86.5208 36.7956 86.3017 36.8153V39.2577H86.9389C87.5761 39.2577 88.0607 39.1724 88.4058 38.9951C88.751 38.8178 88.9169 38.4895 88.9169 37.9971C88.9169 37.7608 88.8704 37.5638 88.7842 37.4062C88.6912 37.2486 88.5651 37.1239 88.4058 37.032C88.2465 36.9401 88.054 36.881 87.835 36.8416C87.616 36.8022 87.377 36.7825 87.1314 36.7825Z" fill="#AFAFAF"/>
<path id="Vector_101" d="M97.6899 38.6143C97.5837 38.5814 97.4377 38.542 97.2585 38.5026C97.0793 38.4633 96.8603 38.4436 96.6147 38.4436C96.4753 38.4436 96.3293 38.4567 96.17 38.4829C96.0107 38.5092 95.9045 38.5355 95.8381 38.5552V42.8885H94.5703V37.7345C94.8159 37.6426 95.1212 37.5572 95.4863 37.4784C95.8514 37.3996 96.2562 37.3602 96.7076 37.3602C96.7939 37.3602 96.8868 37.3602 96.9996 37.3734C97.1125 37.3865 97.2253 37.3996 97.3315 37.4128C97.4444 37.4325 97.5506 37.4521 97.6568 37.4784C97.763 37.5047 97.8426 37.5244 97.909 37.5441L97.6899 38.6011V38.6143Z" fill="#AFAFAF"/>
<path id="Vector_102" d="M101.627 40.2163C101.627 39.7371 101.7 39.3234 101.839 38.9623C101.979 38.6012 102.171 38.3057 102.41 38.0694C102.649 37.833 102.921 37.6492 103.227 37.531C103.532 37.4128 103.851 37.3472 104.169 37.3472C104.919 37.3472 105.51 37.577 105.935 38.0431C106.353 38.5027 106.565 39.1921 106.565 40.1113C106.565 40.1835 106.565 40.2557 106.565 40.3411C106.565 40.4264 106.559 40.5052 106.552 40.5775H102.941C102.974 41.0108 103.134 41.3456 103.406 41.5886C103.678 41.8249 104.083 41.9431 104.601 41.9431C104.906 41.9431 105.185 41.9168 105.444 41.8577C105.696 41.8052 105.902 41.7461 106.048 41.6805L106.213 42.7047C106.147 42.7375 106.048 42.7769 105.928 42.8163C105.809 42.8557 105.669 42.8885 105.51 42.9214C105.351 42.9542 105.185 42.9805 105.005 43.0002C104.826 43.0199 104.64 43.033 104.448 43.033C103.97 43.033 103.552 42.9608 103.193 42.8229C102.842 42.6784 102.543 42.488 102.317 42.232C102.085 41.9825 101.919 41.6805 101.806 41.3456C101.693 41.0042 101.64 40.63 101.64 40.2229L101.627 40.2163ZM105.297 39.6583C105.297 39.4876 105.271 39.3234 105.224 39.1658C105.178 39.0083 105.105 38.877 105.012 38.7653C104.919 38.6537 104.8 38.5618 104.667 38.4962C104.534 38.4305 104.368 38.3977 104.182 38.3977C103.997 38.3977 103.817 38.4371 103.671 38.5093C103.525 38.5815 103.399 38.6734 103.3 38.7916C103.2 38.9098 103.12 39.0411 103.067 39.1921C103.014 39.3431 102.974 39.5007 102.954 39.6583H105.311H105.297Z" fill="#AFAFAF"/>
<path id="Vector_103" d="M112.407 41.9956C112.739 41.9956 112.985 41.9562 113.137 41.8774C113.29 41.7987 113.37 41.6608 113.37 41.4704C113.37 41.2931 113.29 41.1421 113.124 41.0239C112.958 40.9057 112.693 40.781 112.314 40.6431C112.082 40.5578 111.876 40.4724 111.684 40.3805C111.491 40.2886 111.325 40.1769 111.186 40.0522C111.047 39.9275 110.934 39.7764 110.854 39.5992C110.775 39.4219 110.735 39.2052 110.735 38.9492C110.735 38.4502 110.921 38.0628 111.286 37.7739C111.651 37.485 112.155 37.3472 112.792 37.3472C113.111 37.3472 113.423 37.38 113.715 37.4325C114.007 37.485 114.226 37.5507 114.372 37.6032L114.14 38.6143C114 38.5552 113.821 38.4962 113.609 38.4436C113.396 38.3911 113.144 38.3648 112.852 38.3648C112.593 38.3648 112.387 38.4108 112.228 38.4961C112.069 38.5815 111.989 38.7128 111.989 38.8967C111.989 38.9886 112.002 39.0674 112.036 39.133C112.069 39.1987 112.122 39.2643 112.195 39.3234C112.275 39.3825 112.374 39.4416 112.5 39.5007C112.626 39.5598 112.779 39.6189 112.958 39.6845C113.257 39.7961 113.509 39.9012 113.722 40.0128C113.934 40.1179 114.107 40.2426 114.239 40.3739C114.372 40.5052 114.472 40.6628 114.538 40.8335C114.604 41.0042 114.631 41.2143 114.631 41.4507C114.631 41.9694 114.438 42.3567 114.053 42.6259C113.668 42.8951 113.111 43.0264 112.394 43.0264C111.916 43.0264 111.525 42.987 111.233 42.9082C110.94 42.8295 110.735 42.7638 110.615 42.7178L110.834 41.6739C111.02 41.7527 111.246 41.8249 111.511 41.8906C111.77 41.9628 112.069 41.9956 112.407 41.9956Z" fill="#AFAFAF"/>
<path id="Vector_104" d="M118.652 40.2163C118.652 39.7371 118.725 39.3234 118.865 38.9623C119.004 38.6012 119.197 38.3057 119.436 38.0694C119.675 37.833 119.947 37.6492 120.252 37.531C120.557 37.4128 120.876 37.3472 121.195 37.3472C121.945 37.3472 122.535 37.577 122.96 38.0431C123.378 38.5027 123.591 39.1921 123.591 40.1113C123.591 40.1835 123.591 40.2557 123.591 40.3411C123.591 40.4264 123.584 40.5052 123.577 40.5775H119.967C120 41.0108 120.159 41.3456 120.431 41.5886C120.703 41.8249 121.108 41.9431 121.626 41.9431C121.931 41.9431 122.21 41.9168 122.469 41.8577C122.721 41.8052 122.927 41.7461 123.073 41.6805L123.239 42.7047C123.172 42.7375 123.073 42.7769 122.953 42.8163C122.834 42.8557 122.695 42.8885 122.535 42.9214C122.376 42.9542 122.21 42.9805 122.031 43.0002C121.852 43.0199 121.666 43.033 121.473 43.033C120.995 43.033 120.577 42.9608 120.219 42.8229C119.867 42.6784 119.568 42.488 119.343 42.232C119.11 41.9825 118.944 41.6805 118.832 41.3456C118.719 41.0042 118.666 40.63 118.666 40.2229L118.652 40.2163ZM122.323 39.6583C122.323 39.4876 122.296 39.3234 122.25 39.1658C122.203 39.0083 122.13 38.877 122.037 38.7653C121.945 38.6537 121.825 38.5618 121.692 38.4962C121.56 38.4305 121.394 38.3977 121.208 38.3977C121.022 38.3977 120.843 38.4371 120.697 38.5093C120.551 38.5815 120.425 38.6734 120.325 38.7916C120.225 38.9098 120.146 39.0411 120.093 39.1921C120.04 39.3431 120 39.5007 119.98 39.6583H122.336H122.323Z" fill="#AFAFAF"/>
<path id="Vector_105" d="M128.065 37.6623C128.311 37.5966 128.629 37.531 129.014 37.4653C129.406 37.3997 129.837 37.3734 130.309 37.3734C130.753 37.3734 131.125 37.4325 131.43 37.5572C131.729 37.6754 131.968 37.8461 132.147 38.0628C132.327 38.2795 132.453 38.5421 132.526 38.8507C132.599 39.1593 132.638 39.4941 132.638 39.8618V42.9017H131.371V40.0587C131.371 39.7699 131.351 39.5204 131.311 39.3168C131.271 39.1133 131.211 38.9492 131.125 38.8178C131.039 38.6931 130.919 38.5946 130.767 38.5355C130.614 38.4764 130.435 38.4502 130.216 38.4502C130.056 38.4502 129.891 38.4633 129.711 38.483C129.539 38.5027 129.406 38.5224 129.326 38.5355V42.9017H128.059V37.6689L128.065 37.6623Z" fill="#AFAFAF"/>
<path id="Vector_106" d="M137.258 36.0603L138.526 35.8568V37.4916H140.47V38.5356H138.526V40.7416C138.526 41.175 138.599 41.4835 138.738 41.6739C138.877 41.8578 139.116 41.9563 139.448 41.9563C139.681 41.9563 139.88 41.93 140.059 41.884C140.238 41.8381 140.377 41.7921 140.484 41.7462L140.689 42.7376C140.543 42.8032 140.351 42.8623 140.112 42.928C139.873 42.9936 139.594 43.0265 139.276 43.0265C138.884 43.0265 138.559 42.9739 138.3 42.8689C138.041 42.7638 137.829 42.6128 137.676 42.4159C137.523 42.2189 137.417 41.9825 137.351 41.7002C137.284 41.4179 137.258 41.1027 137.258 40.7416V36.0538V36.0603Z" fill="#AFAFAF"/>
<path id="Vector_107" d="M149.842 39.3694H152.656V40.5184H149.842V39.3694Z" fill="#AFAFAF"/>
<path id="Vector_108" d="M164.232 41.9234C164.703 41.9234 165.048 41.8446 165.267 41.687C165.486 41.5294 165.592 41.3062 165.592 41.0173C165.592 40.8466 165.553 40.6956 165.48 40.5708C165.407 40.4461 165.3 40.3345 165.168 40.236C165.035 40.1375 164.869 40.0456 164.67 39.9537C164.477 39.8683 164.252 39.783 163.999 39.6976C163.747 39.6057 163.508 39.5072 163.276 39.4022C163.044 39.2971 162.838 39.1658 162.659 39.0017C162.479 38.8441 162.34 38.6537 162.227 38.4304C162.121 38.2072 162.068 37.9446 162.068 37.636C162.068 36.986 162.294 36.4805 162.745 36.1128C163.196 35.7451 163.814 35.5613 164.597 35.5613C165.048 35.5613 165.453 35.6138 165.805 35.7123C166.157 35.8108 166.435 35.9224 166.635 36.0406L166.23 37.0976C165.991 36.9663 165.732 36.8678 165.453 36.7956C165.168 36.73 164.882 36.6906 164.577 36.6906C164.218 36.6906 163.946 36.7628 163.747 36.9072C163.548 37.0517 163.449 37.2552 163.449 37.5178C163.449 37.6754 163.482 37.8133 163.548 37.9249C163.614 38.0365 163.707 38.1416 163.833 38.2269C163.953 38.3188 164.099 38.3976 164.265 38.4764C164.431 38.5552 164.61 38.6274 164.803 38.6931C165.141 38.8178 165.446 38.9426 165.719 39.0739C165.984 39.1986 166.216 39.3562 166.396 39.5269C166.581 39.7042 166.721 39.9077 166.82 40.1506C166.92 40.387 166.966 40.6759 166.966 41.0173C166.966 41.6673 166.734 42.1663 166.269 42.5208C165.805 42.8754 165.128 43.0526 164.232 43.0526C163.933 43.0526 163.661 43.0329 163.409 42.9935C163.163 42.9542 162.944 42.9082 162.752 42.8557C162.559 42.8031 162.393 42.7441 162.254 42.685C162.114 42.6259 162.002 42.5734 161.922 42.5274L162.307 41.4638C162.493 41.5688 162.752 41.6673 163.07 41.7723C163.389 41.8774 163.78 41.9299 164.232 41.9299V41.9234Z" fill="#AFAFAF"/>
<path id="Vector_109" d="M170.896 40.2163C170.896 39.7371 170.97 39.3234 171.109 38.9623C171.248 38.6012 171.441 38.3057 171.68 38.0694C171.919 37.833 172.191 37.6492 172.496 37.531C172.801 37.4128 173.12 37.3472 173.439 37.3472C174.189 37.3472 174.779 37.577 175.204 38.0431C175.622 38.5027 175.835 39.1921 175.835 40.1113C175.835 40.1835 175.835 40.2557 175.835 40.3411C175.835 40.4264 175.828 40.5052 175.822 40.5775H172.211C172.244 41.0108 172.403 41.3456 172.675 41.5886C172.947 41.8249 173.352 41.9431 173.87 41.9431C174.175 41.9431 174.454 41.9168 174.713 41.8577C174.965 41.8052 175.171 41.7461 175.317 41.6805L175.483 42.7047C175.417 42.7375 175.317 42.7769 175.198 42.8163C175.078 42.8557 174.939 42.8885 174.779 42.9214C174.62 42.9542 174.454 42.9805 174.275 43.0002C174.096 43.0199 173.91 43.033 173.717 43.033C173.24 43.033 172.821 42.9608 172.463 42.8229C172.111 42.6784 171.812 42.488 171.587 42.232C171.354 41.9825 171.189 41.6805 171.076 41.3456C170.963 41.0042 170.91 40.63 170.91 40.2229L170.896 40.2163ZM174.567 39.6583C174.567 39.4876 174.54 39.3234 174.494 39.1658C174.448 39.0083 174.375 38.877 174.282 38.7653C174.189 38.6537 174.069 38.5618 173.936 38.4962C173.804 38.4305 173.638 38.3977 173.452 38.3977C173.266 38.3977 173.087 38.4371 172.941 38.5093C172.795 38.5815 172.669 38.6734 172.569 38.7916C172.47 38.9098 172.39 39.0411 172.337 39.1921C172.284 39.3431 172.244 39.5007 172.224 39.6583H174.58H174.567Z" fill="#AFAFAF"/>
<path id="Vector_110" d="M182.207 43.0001C181.829 42.9936 181.517 42.9542 181.271 42.8754C181.026 42.7966 180.827 42.6916 180.681 42.5471C180.535 42.4027 180.428 42.232 180.375 42.0219C180.316 41.8118 180.289 41.5688 180.289 41.2997V35.0689L181.557 34.8654V41.0633C181.557 41.2143 181.57 41.3456 181.59 41.4441C181.617 41.5491 181.656 41.6345 181.723 41.7067C181.782 41.7789 181.869 41.8315 181.982 41.8709C182.088 41.9103 182.227 41.9365 182.393 41.9562L182.214 42.9936L182.207 43.0001Z" fill="#AFAFAF"/>
<path id="Vector_111" d="M188.451 43.0001C188.073 42.9936 187.761 42.9542 187.516 42.8754C187.27 42.7966 187.071 42.6916 186.925 42.5471C186.779 42.4027 186.673 42.232 186.619 42.0219C186.56 41.8118 186.533 41.5688 186.533 41.2997V35.0689L187.801 34.8654V41.0633C187.801 41.2143 187.814 41.3456 187.834 41.4441C187.861 41.5491 187.901 41.6345 187.967 41.7067C188.027 41.7789 188.113 41.8315 188.226 41.8709C188.332 41.9103 188.471 41.9365 188.637 41.9562L188.458 42.9936L188.451 43.0001Z" fill="#AFAFAF"/>
</g>
<defs>
<clipPath id="clip0_2440_447">
<rect width="188.632" height="42.1053" fill="white" transform="translate(0 0.947388)"/>
</clipPath>
</defs>
</svg>
