<svg width="141" height="141" viewBox="0 0 141 141" fill="none" xmlns="http://www.w3.org/2000/svg">
<g id="Cost-effective" clip-path="url(#clip0_2303_12639)">
<path id="Vector" d="M70.5 140.492C109.16 140.492 140.5 109.153 140.5 70.4958C140.5 31.8382 109.16 0.5 70.5 0.5C31.8401 0.5 0.5 31.8382 0.5 70.4958C0.5 109.153 31.8401 140.492 70.5 140.492Z" fill="#3E4C60"/>
<path id="Vector_2" d="M88.4791 34.918H45.7591C39.5624 34.918 34.5391 39.941 34.5391 46.1373V99.1941C34.5391 105.39 39.5624 110.413 45.7591 110.413H88.4791C94.6757 110.413 99.6991 105.39 99.6991 99.1941V46.1373C99.6991 39.941 94.6757 34.918 88.4791 34.918Z" fill="white"/>
<path id="Vector_3" d="M80.6191 29.3481H53.0391V42.3274H80.6191V29.3481Z" fill="#B8C9DD"/>
<path id="Vector_4" d="M99.7004 120.193C112.707 120.193 123.25 109.65 123.25 96.6443C123.25 83.6388 112.707 73.0957 99.7004 73.0957C86.6941 73.0957 76.1504 83.6388 76.1504 96.6443C76.1504 109.65 86.6941 120.193 99.7004 120.193Z" fill="#2D81FF"/>
<path id="Vector_5" d="M51.1897 43.2976C51.1897 44.1076 51.8497 44.7676 52.6597 44.7676H81.1897C81.9997 44.7676 82.6597 44.1076 82.6597 43.2976V37.168V34.2282V32.7683C82.6597 29.6385 80.1197 27.1086 76.9897 27.0986H74.7397V26.8986C74.7397 22.5789 71.2397 19.0791 66.9197 19.0791C62.5997 19.0791 59.0997 22.5789 59.0997 26.8986V27.0986H56.8497C53.7197 27.0986 51.1897 29.6385 51.1797 32.7683V34.2282V37.168V43.2976H51.1897ZM62.0397 26.9086C62.0397 24.2088 64.2297 22.0289 66.9197 22.0289C69.6097 22.0289 71.7997 24.2188 71.7997 26.9086V27.1086H62.0297V26.9086H62.0397ZM54.1297 32.7783C54.1297 31.2684 55.3497 30.0484 56.8597 30.0484H76.9997C78.5097 30.0484 79.7297 31.2684 79.7297 32.7783V41.8277H54.1397V32.7783H54.1297Z" fill="#B8C9DD"/>
<path id="Vector_6" d="M72.5205 66.226H60.7105V54.4167C60.7105 53.6067 60.0505 52.9468 59.2405 52.9468C51.0905 52.9468 44.4805 59.5464 44.4805 67.6959C44.4805 75.8454 51.0805 82.445 59.2305 82.445C67.3805 82.445 73.9805 75.8354 73.9805 67.6859C73.9805 66.8759 73.3205 66.216 72.5105 66.216L72.5205 66.226ZM67.6005 76.0454C64.2205 79.4152 59.1405 80.4251 54.7305 78.5952C50.3205 76.7653 47.4405 72.4656 47.4405 67.6859C47.4405 64.5561 48.6905 61.5563 50.8905 59.3364C52.7405 57.4765 55.1705 56.2866 57.7705 55.9766V67.6959C57.7705 68.5058 58.4305 69.1658 59.2405 69.1658H70.9505C70.6205 71.7656 69.4405 74.1855 67.5905 76.0554L67.6005 76.0454Z" fill="#2D81FF"/>
<path id="Vector_7" d="M64.1809 64.3262H77.4509C78.2609 64.3262 78.9209 63.6663 78.9209 62.8563C78.9209 58.9465 77.3709 55.2068 74.6209 52.4369L74.6009 52.4169C71.8309 49.6671 68.0809 48.1172 64.1809 48.1172C63.3709 48.1172 62.7109 48.7771 62.7109 49.5871V62.8563C62.7109 63.6663 63.3709 64.3262 64.1809 64.3262ZM65.6509 57.5666L70.3909 52.8269C70.7409 53.0369 71.0809 53.2769 71.4009 53.5269L65.6509 59.2765V57.5666ZM73.4809 55.5967C73.7309 55.9167 73.9609 56.2567 74.1809 56.6067L69.3909 61.3964H67.6809L73.4809 55.5967ZM73.5409 61.3964L75.4809 59.4565C75.6709 60.0865 75.8109 60.7364 75.8909 61.3964H73.5409ZM67.5209 51.547L65.6509 53.4169V51.147C66.2809 51.227 66.9109 51.357 67.5209 51.537V51.547Z" fill="black"/>
<path id="Vector_8" d="M45.97 93.2745H63.93C64.74 93.2745 65.4 92.6145 65.4 91.8045C65.4 90.9945 64.74 90.3345 63.93 90.3345H45.97C45.16 90.3345 44.5 90.9945 44.5 91.8045C44.5 92.6145 45.16 93.2745 45.97 93.2745Z" fill="#2D81FF"/>
<path id="Vector_9" d="M70.23 98.7339H45.97C45.16 98.7339 44.5 99.3939 44.5 100.204C44.5 101.014 45.16 101.674 45.97 101.674H70.23C71.04 101.674 71.7 101.014 71.7 100.204C71.7 99.3939 71.04 98.7339 70.23 98.7339Z" fill="#2D81FF"/>
<path id="Vector_10" d="M83.9095 54.9971H93.0395C93.8495 54.9971 94.5095 54.3371 94.5095 53.5271C94.5095 52.7171 93.8495 52.0571 93.0395 52.0571H83.9095C83.0995 52.0571 82.4395 52.7171 82.4395 53.5271C82.4395 54.3371 83.0995 54.9971 83.9095 54.9971Z" fill="#2D81FF"/>
<path id="Vector_11" d="M99.6997 85.3847C102.36 85.3847 104.52 87.5446 104.53 90.2144C104.53 91.0244 105.19 91.6844 106 91.6844C106.81 91.6844 107.47 91.0244 107.47 90.2144C107.47 86.4947 104.83 83.3049 101.17 82.5949V80.465C101.17 79.6551 100.51 78.9951 99.6997 78.9951C98.8897 78.9951 98.2297 79.6551 98.2297 80.465V82.5949C94.2997 83.3549 91.5897 86.9746 91.9797 90.9544C92.3697 94.9342 95.6997 97.974 99.6997 97.984C102.33 98.014 104.46 100.144 104.48 102.784C104.5 105.424 102.4 107.583 99.7597 107.633C99.7397 107.633 99.7197 107.633 99.6997 107.633C99.6797 107.633 99.6597 107.633 99.6397 107.633C96.9997 107.593 94.8797 105.454 94.8697 102.814C94.8697 102.004 94.2097 101.344 93.3997 101.344C92.5897 101.344 91.9297 102.004 91.9297 102.814C91.9297 106.533 94.5697 109.723 98.2297 110.433V112.853C98.2297 113.663 98.8897 114.323 99.6997 114.323C100.51 114.323 101.17 113.663 101.17 112.853V110.433C105.1 109.673 107.8 106.053 107.42 102.074C107.04 98.094 103.7 95.0542 99.6997 95.0442C97.0297 95.0442 94.8697 92.8843 94.8697 90.2144C94.8697 87.5446 97.0297 85.3847 99.6997 85.3847Z" fill="white"/>
</g>
<defs>
<clipPath id="clip0_2303_12639">
<rect width="140" height="139.992" fill="white" transform="translate(0.5 0.5)"/>
</clipPath>
</defs>
</svg>
