<svg width="141" height="141" viewBox="0 0 141 141" fill="none" xmlns="http://www.w3.org/2000/svg">
<g id="Scalable" clip-path="url(#clip0_2303_12645)">
<path id="Vector" d="M70.5 140.492C109.16 140.492 140.5 109.153 140.5 70.4958C140.5 31.8382 109.16 0.5 70.5 0.5C31.8401 0.5 0.5 31.8382 0.5 70.4958C0.5 109.153 31.8401 140.492 70.5 140.492Z" fill="#3E4C60"/>
<path id="Vector_2" d="M113.331 98.964H50.3809V81.4551H113.331V98.964Z" fill="#2D81FF"/>
<path id="Vector_3" d="M113.329 81.455C113.329 83.4249 99.2391 85.0248 81.8491 85.0248C64.4591 85.0248 50.3691 83.4249 50.3691 81.455C50.3691 79.4852 64.4591 77.8853 81.8491 77.8853C99.2391 77.8853 113.329 79.4852 113.329 81.455Z" fill="#526E95"/>
<path id="Vector_4" d="M113.329 98.9643C113.329 102.264 99.2391 104.934 81.8491 104.934C64.4591 104.934 50.3691 102.264 50.3691 98.9643C50.3691 95.6645 64.4591 92.9946 81.8491 92.9946C99.2391 92.9946 113.329 95.6645 113.329 98.9643Z" fill="#2D81FF"/>
<path id="Vector_5" d="M56.8009 85.925L50.3809 86.915V98.9643C50.3809 101.544 58.9909 103.734 71.0609 104.574L56.8009 85.915V85.925Z" fill="#2D81FF"/>
<path id="Vector_6" d="M81.86 104.934C99.24 104.934 113.34 102.264 113.34 98.964V81.4551H99.08C90.79 94.6043 75.77 105.594 60 103.254C65.66 104.294 73.37 104.934 81.87 104.934H81.86Z" fill="#2D81FF"/>
<path id="Vector_7" d="M113.329 81.4549C113.329 83.8848 99.2391 85.8547 81.8491 85.8547C64.4591 85.8547 50.3691 83.8848 50.3691 81.4549C50.3691 79.0251 64.4591 77.0552 81.8491 77.0552C99.2391 77.0552 113.329 79.0251 113.329 81.4549Z" fill="black"/>
<path id="Vector_8" d="M89.9902 94.3942C89.9902 93.4642 89.2102 92.7042 88.2602 92.7342C86.1902 92.7942 84.0502 92.8242 81.8502 92.8242C72.2802 92.8242 63.7102 92.2443 57.9402 91.3143C56.9202 91.1543 55.9902 91.9343 55.9902 92.9542C55.9902 93.7642 56.5802 94.4541 57.3902 94.5941C63.1602 95.5741 71.9702 96.194 81.8502 96.194C84.0802 96.194 86.2502 96.164 88.3502 96.104C89.2602 96.074 89.9902 95.3441 89.9902 94.4441V94.4042V94.3942Z" fill="white"/>
<path id="Vector_9" d="M100.689 93.4544V93.4744C100.689 94.4744 101.579 95.2444 102.579 95.1244C103.889 94.9644 105.109 94.7944 106.219 94.6144C107.029 94.4744 107.619 93.7844 107.619 92.9744C107.619 91.9544 106.689 91.1744 105.669 91.3344C104.599 91.5044 103.439 91.6644 102.189 91.8044C101.339 91.9044 100.699 92.6144 100.699 93.4544H100.689Z" fill="white"/>
<path id="Vector_10" d="M113.331 76.6652H50.3809V59.1562H113.331V76.6652Z" fill="#2D81FF"/>
<path id="Vector_11" d="M113.329 59.1567C113.329 61.1266 99.2391 62.7265 81.8491 62.7265C64.4591 62.7265 50.3691 61.1266 50.3691 59.1567C50.3691 57.1868 64.4591 55.5869 81.8491 55.5869C99.2391 55.5869 113.329 57.1868 113.329 59.1567Z" fill="#526E95"/>
<path id="Vector_12" d="M113.329 76.6654C113.329 79.9653 99.2391 82.6351 81.8491 82.6351C64.4591 82.6351 50.3691 79.9653 50.3691 76.6654C50.3691 73.3656 64.4591 70.6958 81.8491 70.6958C99.2391 70.6958 113.329 73.3656 113.329 76.6654Z" fill="#2D81FF"/>
<path id="Vector_13" d="M81.86 82.6451C99.24 82.6451 113.34 79.9753 113.34 76.6755V59.1665H99.08C90.79 72.3157 75.77 83.3051 60 80.9652C65.66 82.0051 73.37 82.6451 81.87 82.6451H81.86Z" fill="#2D81FF"/>
<path id="Vector_14" d="M113.329 59.1563C113.329 61.5862 99.2391 63.5661 81.8491 63.5661C64.4591 63.5661 50.3691 61.5962 50.3691 59.1563C50.3691 56.7165 64.4591 54.7466 81.8491 54.7466C99.2391 54.7466 113.329 56.7165 113.329 59.1563Z" fill="black"/>
<path id="Vector_15" d="M89.9902 72.1056C89.9902 71.1756 89.2102 70.4157 88.2602 70.4457C86.1902 70.5057 84.0502 70.5357 81.8502 70.5357C72.2802 70.5357 63.7102 69.9457 57.9402 69.0258C56.9202 68.8658 55.9902 69.6457 55.9902 70.6657C55.9902 71.4756 56.5802 72.1656 57.3902 72.3056C63.1602 73.2855 71.9702 73.9055 81.8502 73.9055C84.0802 73.9055 86.2502 73.8755 88.3502 73.8155C89.2602 73.7855 89.9902 73.0555 89.9902 72.1556V72.1156V72.1056Z" fill="white"/>
<path id="Vector_16" d="M100.689 71.1658V71.1858C100.689 72.1858 101.579 72.9558 102.579 72.8358C103.889 72.6758 105.109 72.5058 106.219 72.3258C107.029 72.1858 107.619 71.4958 107.619 70.6858C107.619 69.6658 106.689 68.8858 105.669 69.0458C104.599 69.2158 103.439 69.3758 102.189 69.5158C101.339 69.6158 100.699 70.3258 100.699 71.1658H100.689Z" fill="white"/>
<path id="Vector_17" d="M113.331 54.3766H50.3809V36.8677H113.331V54.3766Z" fill="#2D81FF"/>
<path id="Vector_18" d="M113.329 36.8676C113.329 38.8375 99.2391 40.4374 81.8491 40.4374C64.4591 40.4374 50.3691 38.8375 50.3691 36.8676C50.3691 34.8978 64.4591 33.2979 81.8491 33.2979C99.2391 33.2979 113.329 34.8978 113.329 36.8676Z" fill="#526E95"/>
<path id="Vector_19" d="M113.329 54.3769C113.329 57.6767 99.2391 60.3465 81.8491 60.3465C64.4591 60.3465 50.3691 57.6767 50.3691 54.3769C50.3691 51.0771 64.4591 48.4072 81.8491 48.4072C99.2391 48.4072 113.329 51.0771 113.329 54.3769Z" fill="#2D81FF"/>
<path id="Vector_20" d="M81.86 60.3463C99.24 60.3463 113.34 57.6764 113.34 54.3766V36.8677H99.08C90.79 50.0169 75.77 61.0062 60 58.6664C65.66 59.7063 73.37 60.3463 81.87 60.3463H81.86Z" fill="#2D81FF"/>
<path id="Vector_21" d="M113.329 36.8677C113.329 39.2976 99.2391 41.2775 81.8491 41.2775C64.4591 41.2775 50.3691 39.3076 50.3691 36.8677C50.3691 34.4279 64.4591 32.458 81.8491 32.458C99.2391 32.458 113.329 34.4279 113.329 36.8677Z" fill="black"/>
<path id="Vector_22" d="M89.9902 49.8072C89.9902 48.8773 89.2102 48.1173 88.2602 48.1473C86.1902 48.2073 84.0502 48.2373 81.8502 48.2373C72.2802 48.2373 63.7102 47.6474 57.9402 46.7274C56.9202 46.5674 55.9902 47.3474 55.9902 48.3673C55.9902 49.1773 56.5802 49.8672 57.3902 50.0072C63.1602 50.9872 71.9702 51.6071 81.8502 51.6071C84.0802 51.6071 86.2502 51.5771 88.3502 51.5171C89.2602 51.4871 89.9902 50.7572 89.9902 49.8572V49.8172V49.8072Z" fill="white"/>
<path id="Vector_23" d="M100.689 48.8674V48.8874C100.689 49.8874 101.579 50.6574 102.579 50.5374C103.889 50.3774 105.109 50.2074 106.219 50.0274C107.029 49.8874 107.619 49.1974 107.619 48.3874C107.619 47.3674 106.689 46.5874 105.669 46.7474C104.599 46.9174 103.439 47.0774 102.189 47.2174C101.339 47.3174 100.699 48.0274 100.699 48.8674H100.689Z" fill="white"/>
<path id="Vector_24" d="M43.0105 103.784C39.1205 103.784 35.9705 100.634 35.9705 96.7442C35.9705 92.8544 39.1205 89.7046 43.0105 89.7046C46.9005 89.7046 50.0505 92.8544 50.0505 96.7442C50.0505 100.634 46.9005 103.784 43.0105 103.784ZM59.2805 90.2146L56.8005 85.9249C52.1305 85.9249 47.8205 83.435 45.4805 79.3853H40.5305C38.2005 83.425 33.8805 85.9249 29.2105 85.9249L26.7305 90.2146C29.0605 94.2544 29.0605 99.2441 26.7305 103.284L29.2105 107.574C33.8805 107.574 38.1905 110.063 40.5305 114.103H45.4805C47.8105 110.063 52.1305 107.574 56.8005 107.574L59.2805 103.284C56.9405 99.2441 56.9405 94.2544 59.2805 90.2146Z" fill="#B8C9DD"/>
<path id="Vector_25" d="M32.1006 73.8858C29.1806 73.8858 26.8206 71.526 26.8206 68.6061C26.8206 65.6863 29.1806 63.3265 32.1006 63.3265C35.0206 63.3265 37.3806 65.6863 37.3806 68.6061C37.3806 71.526 35.0206 73.8858 32.1006 73.8858ZM44.3006 63.7064L42.4406 60.4866C38.9406 60.4866 35.7006 58.6167 33.9506 55.5869H30.2406C28.4906 58.6167 25.2506 60.4866 21.7506 60.4866L19.8906 63.7064C21.6406 66.7362 21.6406 70.476 19.8906 73.5058L21.7506 76.7257C25.2506 76.7257 28.4906 78.5955 30.2406 81.6254H33.9506C35.7006 78.5955 38.9406 76.7257 42.4406 76.7257L44.3006 73.5058C42.5506 70.476 42.5506 66.7362 44.3006 63.7064Z" fill="#B8C9DD"/>
</g>
<defs>
<clipPath id="clip0_2303_12645">
<rect width="140" height="139.992" fill="white" transform="translate(0.5 0.5)"/>
</clipPath>
</defs>
</svg>
