<svg width="141" height="141" viewBox="0 0 141 141" fill="none" xmlns="http://www.w3.org/2000/svg">
<g id="Time-saving" clip-path="url(#clip0_2303_12627)">
<path id="Vector" d="M70.5 140.492C109.16 140.492 140.5 109.153 140.5 70.4958C140.5 31.8382 109.16 0.5 70.5 0.5C31.8401 0.5 0.5 31.8382 0.5 70.4958C0.5 109.153 31.8401 140.492 70.5 140.492Z" fill="#3E4C60"/>
<path id="Vector_2" d="M51.52 103.334C68.928 103.334 83.04 89.2229 83.04 71.816C83.04 54.409 68.928 40.2979 51.52 40.2979C34.112 40.2979 20 54.409 20 71.816C20 89.2229 34.112 103.334 51.52 103.334Z" fill="#2D81FF"/>
<path id="Vector_3" d="M51.5195 99.0739C36.4695 99.0739 24.2695 86.8746 24.2695 71.8255C24.2695 56.7764 36.4695 44.5771 51.5195 44.5771C66.5695 44.5771 78.7695 56.7764 78.7695 71.8255C78.7695 86.8746 66.5695 99.0739 51.5195 99.0739ZM51.5195 48.1269C38.4895 48.1269 27.8195 58.7863 27.8195 71.8255C27.8195 84.8647 38.4795 95.5241 51.5195 95.5241C64.5595 95.5241 75.2195 84.8647 75.2195 71.8255C75.3395 58.7963 64.6695 48.1269 51.5195 48.1269Z" fill="black"/>
<path id="Vector_4" d="M50.5805 90.4244V87.1046C46.4305 86.6347 42.7605 85.0948 39.5605 82.2449L42.8805 78.3352C45.3705 80.465 47.9805 81.775 50.5805 82.2449V73.5954C47.2605 72.7655 44.7705 71.6956 43.1105 70.3956C41.5705 69.0957 40.7405 67.0758 40.7405 64.586C40.7405 62.0961 41.6905 59.8463 43.4705 58.3064C45.2505 56.6465 47.6205 55.8165 50.5805 55.5765V53.3267H53.4205V55.5765C56.7405 55.8165 59.8205 56.8764 62.7805 58.8963L59.8205 63.0461C57.8105 61.6262 55.6705 60.7962 53.4205 60.4362V68.8457H53.5405C56.9805 69.6757 59.4605 70.7456 61.1205 72.1655C62.7805 73.5854 63.4905 75.4853 63.4905 78.0852C63.4905 80.685 62.5405 82.8249 60.7605 84.4848C58.8605 86.1447 56.4905 86.9746 53.4105 87.2146V90.4144H50.5705L50.5805 90.4244ZM47.8505 62.6961C47.1405 63.2861 46.7805 63.996 46.7805 64.946C46.7805 65.8959 47.0205 66.4859 47.6105 67.0758C48.0805 67.5458 49.1505 68.1458 50.5705 68.6157V61.7462C49.5005 61.7462 48.5605 61.9861 47.8405 62.6961H47.8505ZM56.2605 80.1151C56.9705 79.5251 57.3305 78.6951 57.3305 77.8652C57.3305 76.9152 57.0905 76.2053 56.5005 75.6153C55.9105 75.0254 54.8405 74.5454 53.1805 74.0754V81.185C54.4805 81.065 55.5505 80.715 56.2605 80.1151Z" fill="#B8C9DD"/>
<path id="Vector_5" d="M97.0307 56.5367C101.771 52.037 104.381 46.1073 104.381 39.9477V33.7881H57.2207V39.9477C57.2207 46.1073 59.8307 52.147 64.5707 56.5367L74.4107 65.7762C76.0707 67.4361 77.1407 69.5659 77.1407 71.8158C77.1407 74.0657 76.1907 76.1955 74.4107 77.8554L64.5707 87.0949C59.8307 91.5946 57.2207 97.5243 57.2207 103.684V109.844H104.501V103.684C104.501 97.5243 101.891 91.4846 97.1507 87.0949L87.3107 77.8554C85.6507 76.1955 84.5807 74.0657 84.5807 71.8158C84.5807 69.5659 85.5307 67.4361 87.3107 65.7762L97.0307 56.5367Z" fill="white"/>
<path id="Vector_6" d="M53.8904 33.788H107.69C110.3 33.788 112.43 31.6582 112.43 29.0483C112.43 26.4385 110.3 24.3086 107.69 24.3086H53.8904C51.2804 24.3086 49.1504 26.4385 49.1504 29.0483C49.1504 31.6582 51.2804 33.788 53.8904 33.788Z" fill="black"/>
<path id="Vector_7" d="M107.69 109.854H53.8904C51.2804 109.854 49.1504 111.983 49.1504 114.593C49.1504 117.203 51.2804 119.333 53.8904 119.333H107.69C110.3 119.333 112.43 117.203 112.43 114.593C112.43 111.983 110.3 109.854 107.69 109.854Z" fill="black"/>
<path id="Vector_8" d="M86.2402 89.1249H86.0002C83.5102 88.5349 81.8502 86.395 81.8502 83.7952V64.3664L92.4002 53.467C93.7002 52.1671 94.7702 50.6272 95.6002 48.9673H65.8602C66.6902 50.6272 67.7602 52.1671 69.0602 53.467L79.6102 64.3664V83.7952C79.6102 86.285 77.9502 88.5349 75.4602 89.1249C69.1802 90.5448 64.2002 95.6445 63.6102 102.154C63.6102 102.744 63.4902 103.334 63.4902 103.814V105.474H97.8502V103.814C97.8502 103.224 97.8502 102.634 97.7302 102.034C97.3802 95.5145 92.5202 90.5448 86.2402 89.1149V89.1249Z" fill="#B8C9DD"/>
<path id="Vector_9" d="M74.2805 86.8651C74.9984 86.8651 75.5805 86.2831 75.5805 85.5651C75.5805 84.8472 74.9984 84.2651 74.2805 84.2651C73.5625 84.2651 72.9805 84.8472 72.9805 85.5651C72.9805 86.2831 73.5625 86.8651 74.2805 86.8651Z" fill="#B8C9DD"/>
<path id="Vector_10" d="M87.0691 87.705C88.0521 87.705 88.8491 86.9081 88.8491 85.925C88.8491 84.942 88.0521 84.145 87.0691 84.145C86.086 84.145 85.2891 84.942 85.2891 85.925C85.2891 86.9081 86.086 87.705 87.0691 87.705Z" fill="#B8C9DD"/>
<path id="Vector_11" d="M77.1191 82.245C77.5775 82.245 77.9491 81.8734 77.9491 81.415C77.9491 80.9566 77.5775 80.585 77.1191 80.585C76.6607 80.585 76.2891 80.9566 76.2891 81.415C76.2891 81.8734 76.6607 82.245 77.1191 82.245Z" fill="#B8C9DD"/>
</g>
<defs>
<clipPath id="clip0_2303_12627">
<rect width="140" height="139.992" fill="white" transform="translate(0.5 0.5)"/>
</clipPath>
</defs>
</svg>
