<svg width="141" height="141" viewBox="0 0 141 141" fill="none" xmlns="http://www.w3.org/2000/svg">
<g id="User-friendly" clip-path="url(#clip0_2303_12633)">
<path id="Vector" d="M70.5 140.492C109.16 140.492 140.5 109.153 140.5 70.4958C140.5 31.8382 109.16 0.5 70.5 0.5C31.8401 0.5 0.5 31.8382 0.5 70.4958C0.5 109.153 31.8401 140.492 70.5 140.492Z" fill="#3E4C60"/>
<path id="Vector_2" d="M99.0901 73.5056L94.5301 78.0653C93.6501 78.9452 92.2201 78.9452 91.3301 78.0653C90.4501 77.1853 90.4501 75.7454 91.3301 74.8655L95.9001 70.2958C96.7801 69.4158 98.2101 69.4258 99.0901 70.2958C99.5201 70.7257 99.7501 71.2957 99.7501 71.8957C99.7501 72.4956 99.5101 73.0656 99.0901 73.4956V73.5056ZM87.8201 73.0256C86.9401 73.9055 85.5101 73.9055 84.6201 73.0256C83.7401 72.1456 83.7401 70.7157 84.6201 69.8258L90.8601 63.5962C91.3001 63.1562 91.8801 62.9362 92.4601 62.9362C93.0401 62.9362 93.6201 63.1562 94.0601 63.5962C94.9401 64.4761 94.9401 65.916 94.0601 66.796L87.8201 73.0356V73.0256ZM80.9701 68.1159C80.0901 68.9958 78.6601 68.9958 77.7801 68.1159C76.9001 67.2359 76.9001 65.796 77.7801 64.9161L85.9601 56.7366C86.8401 55.8566 88.2701 55.8566 89.1601 56.7366C89.5901 57.1665 89.8201 57.7365 89.8201 58.3365C89.8201 58.9364 89.5801 59.5064 89.1601 59.9364L80.9801 68.1159H80.9701ZM101.78 67.6259C100.84 66.686 99.6601 66.136 98.4401 65.946C98.6601 64.1561 98.1201 62.2862 96.7401 60.9063C95.8301 59.9964 94.7001 59.4464 93.5201 59.2364C93.5601 58.9364 93.6101 58.6465 93.6101 58.3365C93.6101 56.7166 92.9801 55.1967 91.8401 54.0567C91.2701 53.4968 90.6201 53.0668 89.9301 52.7768L96.3701 46.3372C98.7301 43.9773 98.7301 40.1376 96.3701 37.7777C94.0101 35.4178 90.1701 35.4178 87.8101 37.7777L65.4101 60.1764C64.5001 58.4065 63.1001 55.9566 61.3001 53.7368C60.0901 52.2368 58.5201 50.7969 56.6401 49.457C53.9001 47.5071 50.2401 47.5071 47.5201 49.457C45.3401 51.0169 44.7701 54.0167 46.2301 56.2666L49.5701 61.4363C51.3301 64.1561 52.2201 67.3059 52.1401 70.5357L51.9001 80.3452C51.8801 81.3051 51.4901 82.205 50.8101 82.885L46.3301 87.3647C45.5901 88.1047 45.5901 89.3046 46.3301 90.0446C46.7001 90.4146 47.1901 90.6045 47.6701 90.6045C48.1501 90.6045 48.6401 90.4246 49.0101 90.0446L53.4901 85.5648C54.8601 84.1949 55.6401 82.375 55.6901 80.4352L55.9301 70.6257C56.0301 66.626 54.9301 62.7362 52.7601 59.3764L49.4201 54.2067C49.0601 53.6568 49.2001 52.9268 49.7301 52.5368C51.1301 51.5369 53.0201 51.5469 54.4401 52.5568C56.0401 53.6968 57.3601 54.8967 58.3501 56.1266C61.2401 59.7164 63.0701 64.1161 63.0901 64.1561C63.3301 64.7461 63.8501 65.1661 64.4701 65.2961C65.1001 65.4161 65.7301 65.2261 66.1801 64.7761L90.4801 40.4675C91.3601 39.5876 92.7901 39.5876 93.6801 40.4675C94.5601 41.3475 94.5601 42.7774 93.6801 43.6574L75.0901 62.2462C73.6101 63.7262 73.0601 65.786 73.4401 67.6959C75.1501 75.8054 69.0201 79.5252 68.7401 79.6952C67.8401 80.2152 67.5201 81.3751 68.0401 82.285C68.3901 82.895 69.0301 83.235 69.6901 83.235C70.0101 83.235 70.3301 83.155 70.6301 82.985C73.0101 81.6251 76.7401 77.9053 77.4101 72.2256C78.0501 72.4456 78.7101 72.5756 79.3801 72.5756C79.6801 72.5756 79.9801 72.5356 80.2801 72.4856C80.4901 73.6656 81.0401 74.7955 81.9501 75.7054C83.1301 76.8854 84.6801 77.4753 86.2301 77.4753C86.4801 77.4753 86.7301 77.4353 86.9901 77.4053C87.1801 78.6253 87.7301 79.8052 88.6701 80.7451C89.3201 81.4051 90.0901 81.8551 90.9101 82.1451C87.7701 86.5748 83.9601 90.6445 81.0701 93.4644C78.5601 95.9242 75.0101 96.9142 71.5701 96.1242L69.5501 95.6542C68.9101 95.5042 68.2401 95.7042 67.7801 96.1642L61.4601 102.484C60.7201 103.224 60.7201 104.424 61.4601 105.164C61.8301 105.534 62.3201 105.724 62.8001 105.724C63.2801 105.724 63.7701 105.534 64.1401 105.164L69.7201 99.584L70.7201 99.814C75.4201 100.894 80.2801 99.534 83.7201 96.1742C87.2501 92.7144 92.1301 87.4647 95.6801 81.8351C96.2301 81.5551 96.7601 81.2151 97.2201 80.7451L101.78 76.1854C102.92 75.0455 103.55 73.5256 103.55 71.9057C103.55 70.2858 102.92 68.7658 101.78 67.6259Z" fill="white"/>
<path id="Vector_3" d="M64.1695 39.4277C65.2195 39.4277 66.0695 38.5777 66.0695 37.5278V32.3081C66.0695 31.2582 65.2195 30.4082 64.1695 30.4082C63.1195 30.4082 62.2695 31.2582 62.2695 32.3081V37.5278C62.2695 38.5777 63.1195 39.4277 64.1695 39.4277Z" fill="#2D81FF"/>
<path id="Vector_4" d="M54.5595 42.2976C54.9295 42.6676 55.4195 42.8576 55.8995 42.8576C56.3795 42.8576 56.8695 42.6676 57.2395 42.2976C57.9795 41.5577 57.9795 40.3577 57.2395 39.6178L53.5495 35.928C52.8095 35.1881 51.6095 35.1881 50.8695 35.928C50.1295 36.668 50.1295 37.8679 50.8695 38.6079L54.5595 42.2976Z" fill="#2D81FF"/>
<path id="Vector_5" d="M72.4399 42.8473C72.9299 42.8473 73.4099 42.6574 73.7799 42.2874L77.4699 38.5976C78.2099 37.8576 78.2099 36.6577 77.4699 35.9178C76.7299 35.1778 75.5299 35.1778 74.7899 35.9178L71.0999 39.6075C70.3599 40.3475 70.3599 41.5474 71.0999 42.2874C71.4699 42.6574 71.9599 42.8473 72.4399 42.8473Z" fill="#2D81FF"/>
<path id="Vector_6" d="M70.5493 13.2993C38.9693 13.2993 13.2793 38.9878 13.2793 70.5559C13.2793 91.7146 24.8193 110.234 41.9493 120.123V115.673C27.0193 106.194 17.0993 89.5147 17.0993 70.5559C17.0993 41.0877 41.0693 17.1291 70.5493 17.1291C100.009 17.1291 123.979 41.0877 123.979 70.5559C123.979 88.5748 115.009 104.544 101.309 114.213L100.219 116.353C99.4393 117.913 98.5993 119.433 97.7393 120.903C115.639 111.233 127.809 92.2746 127.809 70.5559C127.809 38.9878 102.119 13.2993 70.5493 13.2993Z" fill="black"/>
<path id="Vector_7" d="M45.9297 128.642V114.543H55.4597V117.213H49.1097V119.983H54.7397V122.582H49.1097V125.982H55.9197V128.642H45.9297Z" fill="#2D81FF"/>
<path id="Vector_8" d="M63.9103 117.743C63.8403 117.943 63.7403 118.223 63.6003 118.583C63.4603 118.933 63.3103 119.343 63.1303 119.803C62.9603 120.263 62.7603 120.773 62.5503 121.333C62.3303 121.893 62.1203 122.473 61.8903 123.082H65.9203C65.7003 122.473 65.4903 121.883 65.2903 121.333C65.0903 120.773 64.9003 120.263 64.7103 119.803C64.5303 119.343 64.3703 118.933 64.2303 118.583C64.0903 118.233 63.9803 117.953 63.9003 117.753L63.9103 117.743ZM67.7203 128.642C67.5603 128.152 67.3903 127.652 67.2103 127.132C67.0303 126.612 66.8503 126.102 66.6703 125.592H61.1603C60.9803 126.102 60.8003 126.622 60.6203 127.142C60.4403 127.662 60.2703 128.162 60.1203 128.652H56.8203C57.3503 127.132 57.8503 125.732 58.3303 124.442C58.8103 123.152 59.2703 121.943 59.7303 120.803C60.1903 119.663 60.6303 118.583 61.0803 117.563C61.5203 116.543 61.9803 115.543 62.4603 114.563H65.4703C65.9303 115.543 66.3903 116.543 66.8403 117.563C67.2903 118.583 67.7403 119.673 68.2003 120.803C68.6603 121.943 69.1203 123.152 69.6003 124.442C70.0803 125.732 70.5803 127.132 71.1103 128.652H67.7103L67.7203 128.642Z" fill="#2D81FF"/>
<path id="Vector_9" d="M77.1597 126.223C77.6097 126.223 77.9797 126.183 78.2697 126.113C78.5597 126.043 78.7997 125.933 78.9697 125.813C79.1497 125.683 79.2697 125.533 79.3397 125.353C79.4097 125.173 79.4397 124.983 79.4397 124.763C79.4397 124.303 79.2197 123.923 78.7897 123.613C78.3597 123.303 77.6097 122.983 76.5497 122.623C76.0897 122.463 75.6297 122.273 75.1697 122.063C74.7097 121.853 74.2997 121.593 73.9297 121.273C73.5597 120.953 73.2697 120.563 73.0297 120.113C72.7997 119.663 72.6797 119.103 72.6797 118.453C72.6797 117.803 72.7997 117.213 73.0497 116.693C73.2897 116.173 73.6397 115.723 74.0897 115.363C74.5397 114.993 75.0797 114.713 75.7197 114.523C76.3597 114.323 77.0797 114.233 77.8797 114.233C78.8297 114.233 79.6497 114.333 80.3397 114.543C81.0297 114.743 81.5997 114.973 82.0497 115.213L81.1297 117.713C80.7397 117.513 80.2997 117.333 79.8197 117.173C79.3397 117.013 78.7597 116.943 78.0797 116.943C77.3197 116.943 76.7697 117.043 76.4397 117.253C76.1097 117.463 75.9397 117.783 75.9397 118.223C75.9397 118.483 75.9997 118.693 76.1197 118.873C76.2397 119.053 76.4097 119.213 76.6397 119.353C76.8597 119.493 77.1197 119.623 77.4097 119.743C77.6997 119.863 78.0197 119.973 78.3797 120.103C79.1097 120.373 79.7497 120.643 80.2897 120.903C80.8297 121.163 81.2797 121.473 81.6397 121.833C81.9997 122.183 82.2697 122.603 82.4397 123.073C82.6197 123.553 82.6997 124.123 82.6997 124.803C82.6997 126.123 82.2397 127.143 81.3197 127.863C80.3997 128.593 79.0097 128.953 77.1497 128.953C76.5297 128.953 75.9597 128.913 75.4597 128.843C74.9597 128.773 74.5097 128.673 74.1297 128.563C73.7397 128.453 73.4097 128.343 73.1297 128.213C72.8497 128.093 72.6197 127.973 72.4297 127.863L73.3297 125.343C73.7497 125.573 74.2697 125.783 74.8897 125.963C75.5097 126.143 76.2597 126.233 77.1597 126.233V126.223Z" fill="#2D81FF"/>
<path id="Vector_10" d="M90.1095 120.333C90.6795 119.373 91.2194 118.413 91.7394 117.453C92.2594 116.493 92.7294 115.523 93.1694 114.553H96.6694C95.8994 116.073 95.0994 117.543 94.2694 118.963C93.4394 120.383 92.5695 121.823 91.6495 123.253V128.642H88.4795V123.293C87.5595 121.853 86.6794 120.413 85.8494 118.983C85.0194 117.543 84.2095 116.063 83.4395 114.553H87.1195C87.5495 115.523 88.0194 116.493 88.5194 117.453C89.0194 118.413 89.5595 119.373 90.1195 120.333H90.1095Z" fill="#2D81FF"/>
</g>
<defs>
<clipPath id="clip0_2303_12633">
<rect width="140" height="139.992" fill="white" transform="translate(0.5 0.5)"/>
</clipPath>
</defs>
</svg>
